/* XPM */
static char *d546670debec4975e80bc8c6cd990e1aFLZIrIDANcF24Rsy_9[] = {
/* columns rows colors chars-per-pixel */
"50 50 2 1 ",
"  c None",
". c #DFDF20",
/* pixels */
"                                                  ",
"                                                  ",
"                                                  ",
"                                                  ",
"                                                  ",
"                                                  ",
"                                                  ",
"                                                  ",
"                                                  ",
"                                                  ",
"    ..                                      ..    ",
"    ...                                    ...    ",
"   .....                                  .....   ",
"   ......                                ......   ",
"  ........                              ........  ",
"  .........                            .........  ",
" ...........                          ........... ",
" ............                        ............ ",
" .............                      ............. ",
" ..............                    .............. ",
"................                  ................",
".................                .................",
"..................              ..................",
"...................            ...................",
"....................          ....................",
".....................        .....................",
"......................      ......................",
".......................    .......................",
"........................  ........................",
"..................................................",
" ................................................ ",
" ................................................ ",
" ................................................ ",
" ................................................ ",
"  ..............................................  ",
"  ..............................................  ",
"   ............................................   ",
"   ............................................   ",
"    ..........................................    ",
"    ..........................................    ",
"     ........................................     ",
"      ......................................      ",
"       ....................................       ",
"        ..................................        ",
"         ................................         ",
"          ..............................          ",
"            ..........................            ",
"              ......................              ",
"                ..................                ",
"                    ..........                    "
};
