/* XPM */
static char *_ff085fc69574f15c23641f3528ce92bcgeKOb2Nm4MYNwwV[] = {
/* columns rows colors chars-per-pixel */
"50 50 157 2 ",
"   c #63323E",
".  c #753A34",
"X  c #793C34",
"o  c #2D1A5B",
"O  c #371F57",
"+  c #381F56",
"@  c #331D5A",
"#  c #3E2254",
"$  c #35205D",
"%  c #3A225A",
"&  c #45254F",
"*  c #4A274D",
"=  c #4C284C",
"-  c #572D46",
";  c #592D46",
":  c #552B4E",
">  c #5B2D4E",
",  c #442454",
"<  c #492756",
"1  c #4C2A57",
"2  c #482959",
"3  c #522F59",
"4  c #5A3151",
"5  c #54315B",
"6  c #602F4E",
"7  c #603144",
"8  c #6B3446",
"9  c #663649",
"0  c #743746",
"q  c #763846",
"w  c #7D3B46",
"e  c #763C4A",
"r  c #683752",
"t  c #6B3C56",
"y  c #6D3E58",
"u  c #452C60",
"i  c #4A3061",
"p  c #553965",
"a  c #593B64",
"s  c #734157",
"d  c #734158",
"f  c #7D4758",
"g  c #674769",
"h  c #6F4D6C",
"j  c #784F66",
"k  c #7B566E",
"l  c #7D586F",
"z  c #823E3F",
"x  c #854034",
"c  c #8C4335",
"v  c #8B413F",
"b  c #954536",
"n  c #9E4934",
"m  c #94443F",
"M  c #9A473F",
"N  c #934C3B",
"B  c #9F483F",
"V  c #A34B34",
"C  c #AC4E34",
"Z  c #A0493F",
"A  c #A94D38",
"S  c #B04F34",
"D  c #AD5035",
"F  c #A2523C",
"G  c #B55134",
"H  c #BC5434",
"J  c #B75238",
"K  c #BA5338",
"L  c #B3583B",
"P  c #BA5B3B",
"I  c #C25634",
"U  c #C85733",
"Y  c #C65834",
"T  c #CA5934",
"R  c #C45E3D",
"E  c #C6603C",
"W  c #CE633C",
"Q  c #D4653C",
"!  c #803C46",
"~  c #894947",
"^  c #804650",
"/  c #914D51",
"(  c #975556",
")  c #9A5757",
"_  c #9B5857",
"`  c #9B5A5A",
"'  c #AA5A41",
"]  c #A95E50",
"[  c #BD6442",
"{  c #B46656",
"}  c #9E6567",
"|  c #9B7079",
" . c #A27175",
".. c #A0767D",
"X. c #A4787D",
"o. c #C36441",
"O. c #C56C47",
"+. c #CC6842",
"@. c #C76A49",
"#. c #D56B42",
"$. c #DC6F42",
"%. c #DD7246",
"&. c #D57349",
"*. c #D87348",
"=. c #D7784C",
"-. c #D9784C",
";. c #C06D56",
":. c #E47A4B",
">. c #E97E4C",
",. c #C27763",
"<. c #EB804D",
"1. c #E58255",
"2. c #EB8655",
"3. c #F58B55",
"4. c #F98E56",
"5. c #F98E55",
"6. c #FD9055",
"7. c #F7905A",
"8. c #F7905A",
"9. c #FA925A",
"0. c #C58777",
"q. c #C58777",
"w. c #F69764",
"e. c #F69866",
"r. c #F69866",
"t. c #F99A67",
"y. c #FA9B66",
"u. c #F39B6C",
"i. c #F49A6A",
"p. c #EB9970",
"a. c #FBA574",
"s. c #FBAD7F",
"d. c #FBAD7F",
"f. c #C89587",
"g. c #C89689",
"h. c #C89689",
"j. c #C9988B",
"k. c #CA998B",
"l. c #FAAE81",
"z. c #FCB082",
"x. c #FFB282",
"c. c #FFB282",
"v. c #FDB98E",
"b. c #FEBB8F",
"n. c #EFB696",
"m. c #F1B795",
"M. c #F4B996",
"N. c #FEBF95",
"B. c #FDC19A",
"V. c #FEC199",
"C. c #FEC49C",
"Z. c #FFC59C",
"A. c #FFC69D",
"S. c #FFC69E",
"D. c #FFC49B",
"F. c #FFC89E",
"G. c #FFC99E",
/* pixels */
"o o o o o o o o o o o o o o o o o o o o o o o o o o o o o o o o o o o o o o o o o o o o o o o o o o ",
"o o o o o o o o o o o o o o o o o o o o o o o o o o o o o o o o o o o o o o o o o o o o o o o o o o ",
"p p p p p p p p p p p p p p p p p p p p p p p p p p p p p p p p p p p p p p p p p p p p p p p p p p ",
"n.n.n.n.n.n.n.n.n.n.n.n.n.n.n.n.n.n.n.n.n.n.n.n.n.n.n.n.n.n.n.n.n.n.n.n.n.n.n.n.n.n.n.n.n.n.n.n.n.n.",
"A.A.A.A.A.A.A.A.A.A.A.A.A.A.A.A.A.A.A.A.A.A.A.A.A.A.A.A.A.A.A.A.A.A.A.A.A.A.A.A.A.A.A.A.A.A.A.A.A.A.",
"v.v.v.v.v.v.v.v.v.v.v.v.v.v.v.v.v.v.v.v.v.v.v.v.v.v.v.v.v.v.v.v.v.v.v.v.v.v.v.v.v.v.v.v.v.v.v.v.v.v.",
"7.7.7.7.7.7.7.7.7.7.7.7.7.7.7.7.7.7.7.7.7.7.7.7.7.7.7.7.7.7.7.7.7.7.7.7.7.7.7.7.7.7.7.7.7.7.7.7.7.7.",
"4.4.4.4.4.4.4.4.4.4.4.4.4.4.4.4.4.4.4.4.4.4.4.4.4.4.4.4.4.4.4.4.4.4.4.4.4.4.4.4.4.4.4.4.4.4.4.4.4.4.",
"<.<.>.:.:.:.:.:.:.<.<.<.<.<.<.<.<.>.:.:.:.:.:.>.<.<.<.<.<.<.<.<.>.:.:.>.<.<.>.:.:.>.<.<.:.:.:.:.:.:.",
"T T Y A V V V V D T T T T T T T T H V V V V V G T T T T T T T T G V V H T T D V A I T Y C V V V V V ",
"T T Y V V V n n C T T T T T T T T H V V n n n G T T T T T T T T S V V H T T C V V I T U C n V V V V ",
"Z Z M z z z z z v B B ' Z Z Z Z Z m z z z z z m Z Z Z Z Z Z Z Z v z z m Z B v z z M Z B v z z z z z ",
"@ @ @ @ @ @ @ @ @ @ @ @ @ @ @ @ @ @ @ @ @ @ @ @ @ @ @ @ @ @ @ @ @ @ @ @ @ @ @ @ @ @ @ @ @ @ @ @ @ @ ",
"o o o o o o o o o o o o o o o o o o o o o o o o o o o o o o o o o o o o o o o o o o o o o o o o o o ",
"d d d d d d d s d k l g @ o + * * 4 d d d d d d d d d d d d d d j l k i o o , * * t d d d d d d d d ",
"3.3.3.3.3.3.3.3.r.V.A.h.$ o * . . ' 3.3.3.3.3.3.3.3.3.3.3.3.3.3.l.A.V.k o @   . X =.4.3.3.3.3.3.3.3.",
"5.5.5.5.5.4.4.4.t.V.G.j.$ o * . . ' 4.4.4.4.4.4.4.4.4.4.4.4.4.4.x.A.A.l o @   . X =.5.4.4.4.4.4.4.4.",
"&.&.&.&.&.*.:.:.2.s.x.q.@ o * . . F :.:.:.:.:.:.:.:.:.:.:.:.:.:.u.x.l.j o @   . X [ &.&.:.:.:.:.:.:.",
"n n n n n A Y T Q 3.5.;.@ o * . . b T T T T T T T T T T T T T T :.4.3.d o @   . X b V V I T T T T T ",
"n n n n n A Y T Q 3.5.;.@ o * . . b T T T T T T T T T T T T T T :.4.3.d o @   . X b n V I T T T T T ",
"G G G G G G G G E 3.5.;.@ o * . . c G G H T T I G G G G G I T T :.4.3.d o @   . X V G G G G G G G G ",
"T T T T T I V n L 3.5.;.@ o * . . x n n G T T G n n n n n G T T :.4.3.d o @   . X G T Y A n n n n n ",
"T T T T T I V n L 3.6.;.@ o * . . x V V G T T G V V V V V H T T :.5.4.d o @   . X G T T C V V V V V ",
"w ! ! ! ! w 8 8 e ) _ f @ o # - - 7 8 8 0 ! ! q 8 8 8 8 8 q ! ! / _ ) 5 o o = - ; q ! w 8 8 8 8 8 8 ",
"o o o o o o o o o o o o o o o o o o o o o o o o o o o o o o o o o o o o o o o o o o o o o o o o o o ",
"o o o o o o o o o o o o o o o o o o o o o o o o o o o o o o o o o o o o o o o o o o o o o o o o o o ",
"o o O - - 9 ( _ _ _ _ _ _ _ _ _ _ _ _ ) } X.X.h o o & - - ^ _ _ _ _ _ _ _ _ _ _ _ _ ) `  .X.| u o o ",
"o o # . . N 3.5.5.5.5.5.5.5.5.5.5.5.5.5.a.A.G.X.o o ; . . O.5.5.5.5.5.5.5.5.5.5.5.5.5.9.b.G.M.a o o ",
"o o # . . N 2.4.4.4.4.4.4.4.4.4.4.4.4.3.a.A.A.X.o o - . . O.5.4.4.4.4.4.4.4.4.4.4.4.4.7.v.A.m.a o o ",
"o o # . . c #.$.$.$.$.$.$.$.#.o.o.+.$.$.2.a.a.} o o - . . L $.$.$.$.$.+.o.o.#.$.$.$.$.%.i.a.p.5 o o ",
"o o # . . x I T U U T T T T H n n C T U $.3.5.) o o - . . V T T T T T C n n H T T T T T <.4.1.3 o o ",
"o o # . . x I T T T T T T T H V n C T T $.4.5._ o o - . . A T T T T T C n V H T T T T T <.5.1.3 o o ",
"o o # . . x I T I S C C C C G H H H T T $.4.5._ o o - . . A T T H C C G H H G C C C C G >.5.1.3 o o ",
"o o # . . x I T H V n n n n C T T T T T $.4.5._ o o - . . A T T C n n H T T C n n n n A >.5.1.3 o o ",
"o o # . . x I T H V n n n n C Y Y Y Y Y $.3.4.) o o - . . V T Y C n n H T Y C n n n n A :.4.1.3 o o ",
"o o @ * * = > 6 > : : : : : > 6 6 6 6 6 r d d 5 o o # * * : 6 6 > : : > > > > : : : : : y d y % o o ",
"o o o o o o o o o o o o o o o o o o o o o o o o o o o o o o o o o o o o o o o o o o o o o o o o o o ",
"@ @ @ @ @ @ @ @ @ $ $ @ o o o @ @ @ @ @ @ @ @ @ @ @ @ @ @ @ @ @ @ $ $ @ o o @ @ @ @ @ @ @ @ @ @ @ @ ",
";.;.;.;.;.;.;.;.,.f.j...@ o ,     ~ ;.;.;.;.;.;.;.;.;.;.;.;.;.;.q.j.h.g o @ -     ] ;.;.;.;.;.;.;.;.",
"5.5.5.5.5.5.5.5.t.D.G.j.$ o * . . ' 5.5.5.5.5.5.5.5.5.5.5.5.5.5.x.G.A.l o @   . X -.5.5.5.5.5.5.5.5.",
"3.3.3.2.3.3.3.3.w.N.D.f.$ o * . . ' 3.3.3.3.2.3.3.3.3.3.3.3.3.3.s.V.V.k o @   . X &.3.3.3.3.3.3.3.3.",
"Q Q W L L P Q Q %.w.t.,.@ o * . . c L L L L L R Q Q Q Q Q Q Q Q 2.t.r.d o @   . X P Q Q P L L L L L ",
"T T I V n V Y T Q 3.5.;.@ o * . . x n n n n n S T T T T T T T T :.4.3.s o @   . X G T Y V n n n n n ",
"Y Y I V n A Y T Q 3.5.;.@ o * . . x V V V V V G Y Y T T T Y Y Y :.4.3.d o @   . X G T Y C V V n n n ",
"A A A V n A Y T Q 3.5.;.@ o * . . b I I I I I G A A H T T G A A *.4.3.d o @   . X G T T I I H V n n ",
"n n n V n C Y T Q 3.5.;.@ o * . . b T T T T T G n n G T T G n n &.5.3.d o @   . X G T T T T Y A n V ",
"b b b b b n J H R 1.2.{ @ o * . . c J J J J J A b b A J J V b b @.1.1.y o @ 7 . . A K J J J J n b b ",
", , , , , , , , < 3 3 2 o o @ # # , , , , , , , , , , , , , , , 1 3 3 % o o # # # , , , , , , , , , ",
"o o o o o o o o o o o o o o o o o o o o o o o o o o o o o o o o o o o o o o o o o o o o o o o o o o ",
"o o o o o o o o o o o o o o o o o o o o o o o o o o o o o o o o o o o o o o o o o o o o o o o o o o "
};
