/* XPM */
static char *_7c7817d7a33442faf14320bdf7fd5aeCXX0KipobO4ujmui_1[] = {
/* columns rows colors chars-per-pixel */
"50 50 13 1 ",
"  c None",
". c #03070B",
"X c #3F0609",
"o c #680507",
"O c #630508",
"+ c #002C46",
"@ c #116B46",
"# c #860406",
"$ c #9F0405",
"% c #C30304",
"& c #DB0303",
"* c #FF0202",
"= c #B7F5E6",
/* pixels */
"                                                  ",
"                                                  ",
"                      %%                          ",
"                     %%%                          ",
"                     $$$    OO                    ",
"                     XXX   OOO                    ",
"                     XXX   OOO                    ",
"                     ...   XXX                    ",
"                     ...   XXX                    ",
"                     ...   ...                    ",
"                  ++++..++++++@@                  ",
"                 +++++++++++@@@@                  ",
"                ++++++++++++@@@@@@                ",
"               +++++++++++++++@@@@                ",
"              ..++++++++++++++@@@@                ",
"             ...............++++@@                ",
"             ...............++++@@                ",
"             ...............++++++                ",
"             $$$$$$$$$$$$#..++++++                ",
"             ************&..++++++                ",
"             &&&&&&&&&&&&%..++++++                ",
"             ...............@@++++                ",
"              .............+@@++++                ",
"                 +++++++@@@@@@++                  ",
"                  ++++++@@@@@@++                  ",
"                       .....                      ",
"            @@@@+     ++...+@     ++@@+           ",
"           @@@@@++   +++++@@@@    ++@@++          ",
"           @@@@+++...++O$$$#@@....++@@++          ",
"           @@@++++....+#***&@@....++++@@          ",
"           @@@++++....+o&&&%@@....++++@@          ",
"             ...     +++++++@@      ..            ",
"             +..      ++++++@@     @..            ",
"           +++++@@                @@++++          ",
"          ++++++@@@             ++@@++++++        ",
"         +++ ... @@@           +++  ..  ++        ",
"         +++ ... +@@    ====   +++ +.. +++        ",
"         +++++ +++++   =====   +++++  ++++        ",
"         +++++ +++++    ====    ++++  ++++        ",
"                                                  ",
"                                                  ",
"                                                  ",
"                                                  ",
"                                                  ",
"                                                  ",
"                                                  ",
"                                                  ",
"                                                  ",
"                                                  ",
"                                                  "
};
