/* XPM */
static char *_7c7817d7a33442faf14320bdf7fd5aeCXX0KipobO4ujmui_2[] = {
/* columns rows colors chars-per-pixel */
"50 50 12 1 ",
"  c None",
". c #03070B",
"X c #3F0609",
"o c #680507",
"O c #002C46",
"+ c #116B46",
"@ c #860406",
"# c #9F0405",
"$ c #C30304",
"% c #DB0303",
"& c #FF0202",
"* c #B7F5E6",
/* pixels */
"                      ##                          ",
"                     ###                          ",
"                     @@@    ##                    ",
"                     XXX   ###                    ",
"                     XXX   @@@                    ",
"                     ...   XXX                    ",
"                     ...   XXX                    ",
"                     ...   ...                    ",
"                  OOOO.OOOOOOO++                  ",
"                 OOOOOOOOOOO++++                  ",
"                OOOOOOOOOOOO++++++                ",
"               OOOOOOOOOOOOOOO++++                ",
"              ..OOOOOOOOOOOOOO++++                ",
"             ...............OOOO++                ",
"             ...............OOOO++                ",
"             ...............OOOOOO                ",
"             ############@..OOOOOO                ",
"             &&&&&&&&&&&&%..OOOOOO                ",
"             $$$$$$$$$$$$#..OOOOOO                ",
"             ...............++OOOO                ",
"              ..........OOOO++OOOO                ",
"                 OOOOOOO++++++OO                  ",
"                  OOOOOO++++++OO                  ",
"                       .....                      ",
"            ++++O     OO..OO++    OO++OO          ",
"           +++++OO   OOOOO++++    OO++OO          ",
"           ++++OOO...OOX@@@@++....OO++OO          ",
"           +++OOOO....O@&&&%++....OOOO++          ",
"            ++OOOO....Oo%%%$++....OOOO++          ",
"             ...     OOOOOOO++      ..            ",
"            OO..+     OOOOOO++    ++..O           ",
"           OOOOO++                ++OOOO          ",
"           OOOOO++               O++OOOO          ",
"         OOO ... +++   *****   OOO  ..  OO        ",
"         OOO  .. +++    ****   OOO  ..  OO        ",
"         OOO     OOO           OOO      OO        ",
"         OOO      OO            OO      OO        ",
"                     *********                    ",
"                     *********                    ",
"                                                  ",
"                                                  ",
"                                                  ",
"                                                  ",
"                                                  ",
"                                                  ",
"                                                  ",
"                                                  ",
"                                                  ",
"                                                  ",
"                                                  "
};
