/* XPM */
static char *_7c7817d7a33442faf14320bdf7fd5aeCXX0KipobO4ujmui_5[] = {
/* columns rows colors chars-per-pixel */
"50 50 11 1 ",
"  c None",
". c #03070B",
"X c #3F0609",
"o c #680507",
"O c #002C46",
"+ c #116B46",
"@ c #860406",
"# c #C30304",
"$ c #DB0303",
"% c #FF0202",
"& c #B7F5E6",
/* pixels */
"                                                  ",
"                                                  ",
"                                                  ",
"                                                  ",
"                                                  ",
"                                                  ",
"                      @@                          ",
"                     @@@                          ",
"                     ooo    $$                    ",
"                     XXX   $$$                    ",
"                     XXX   ###                    ",
"                     ...   XXX                    ",
"                     ...   XXX                    ",
"                     ...   ...                    ",
"                  OOOO..OOOOOO++                  ",
"                 OOOOOOOOOOO++++                  ",
"                OOOOOOOOOOOO++++++                ",
"               OOOOOOOOOOOOOOO++++                ",
"              ..OOOOOOOOOOOOOO++++                ",
"             ...............OOOO++                ",
"             ...............OOOO++                ",
"             ...............OOOOOO                ",
"             @@@@@@@@@@@@@..OOOOOO                ",
"             %%%%%%%%%%%%$..OOOOOO                ",
"             $$$$$$$$$$$$#..OOOOOO                ",
"             ...............++OOOO                ",
"              .............O++OOOO                ",
"                 OOOOOOO++++++OO                  ",
"                  OOOOOO++++++OO                  ",
"                       .....                      ",
"            ++++O     OO..OO+     OO++O           ",
"           +++++OO   OOOOO++++    OO++OO          ",
"           ++++OOO   OOX@@@o++   OOO++OO          ",
"           +++OOOO....O@%%%$++....OOOO++          ",
"           +++OOOO....Oo$$$#++....OOOO++          ",
"             ...     OOOOOOO++      ..            ",
"             O..      OOOOOO++     +..            ",
"           OOOOO++                ++OOOO          ",
"           OOOOO++               +++OOOO          ",
"         OOO ... +++   &&&&&   OOO  ..  OO        ",
"         OOO ... +++    &&&&    OO O.. OOO        ",
"           OOO OOO                OO  OO          ",
"           OOO OOO                OO  OO          ",
"                                                  ",
"                                                  ",
"                                                  ",
"                                                  ",
"                                                  ",
"                                                  ",
"                                                  "
};
