/* XPM */
static char *_7c7817d7a33442faf14320bdf7fd5aeCXX0KipobO4ujmui_6[] = {
/* columns rows colors chars-per-pixel */
"50 50 11 1 ",
"  c None",
". c #03070B",
"X c #3F0609",
"o c #002C46",
"O c #116B46",
"+ c #860406",
"@ c #9F0405",
"# c #C30304",
"$ c #DB0303",
"% c #FF0202",
"& c #B7F5E6",
/* pixels */
"                                                  ",
"                                                  ",
"                                                  ",
"                                                  ",
"                                                  ",
"                                                  ",
"                                                  ",
"                                                  ",
"                      ..                          ",
"                     ...                          ",
"                     ...    ..                    ",
"                     ...   ...                    ",
"                     ...   ...                    ",
"                     ...   ...                    ",
"                     ...   ...                    ",
"                     ...   ...                    ",
"                  oooo..ooooooO                   ",
"                 oooooooooooOOOO                  ",
"                ooooooooooooOOOOOO                ",
"               oooooooooooooooOOOO                ",
"              ..ooooooooooooooOOOO                ",
"             ...............ooooOO                ",
"             ...............ooooOO                ",
"             ...............oooooo                ",
"             @@@@@@@@@@@@+..oooooo                ",
"             %%%%%%%%%%%%$..oooooo                ",
"             $$$$$$$$$$$$#..oooooo                ",
"             ...............OOoooo                ",
"              ..........ooooOOoooo                ",
"                 oooooooOOOOOOoo                  ",
"                  ooooooOOOOOOoo                  ",
"                       .....                      ",
"                       o...o                      ",
"           OOOOOoo   oooooOOOO    ooOOoo          ",
"           OOOOooo...ooX@@@+OO....ooOOoo          ",
"           OOOoooo....o+%%%$OO....ooooOO          ",
"           OOOoooo....o+$$$#OO....ooooOO          ",
"             ...     oooooooOO      ..            ",
"             ...     oooooooOO     o..            ",
"           oooooOO                OOoooo          ",
"           oooooOO               oOOoooo          ",
"         ooo ... OOO   &&&&&   ooo  ..  oo        ",
"         ooo ... OOO    &&&&    oo o.. ooo        ",
"           ooo ooo                oo  oo          ",
"           ooo ooo                oo  oo          ",
"                     &&&&&&&&&                    ",
"                      &&&&&&&&                    ",
"                                                  ",
"                                                  ",
"                                                  "
};
