/* XPM */
static char *_b6cb217e518448df014f83caea9729aT6g5hmUMchZrkdv8_0[] = {
/* columns rows colors chars-per-pixel */
"50 50 16 1 ",
"* c #FF0202",
". c black",
"X c #523114",
"o c #653C18",
"O c #455A63",
"+ c #615C60",
"@ c #615C61",
"# c #9C6D3F",
"$ c #A76E34",
"% c #A86E34",
"& c #A87A40",
"* c #A87B41",
"= c #C58642",
"- c #7F8A8F",
"; c #78909C",
": c #85DAFE",
/* pixels */
"                      ......                      ",
"                   .;;::::::;;.                   ",
"                 .O;;;;;;;;;;;;O.                 ",
"               OO;:;;;;;--;;;;::;O                ",
"              .;:;;;;OOXXXXOO;;;;:;               ",
"             O;;;;-@OooooooooO@-;;;;              ",
"            .;;;;;XXo#o=$$$o#oXX;;;;;             ",
"            .:;;-Xo##&o=$$$#&##oX-;;:.            ",
"           .;;;;Xo=$$&o=$$$#&&&&oX;;;;            ",
"           O;;;Ooo=&$&o=$$$#&$&&ooO;;;O           ",
"           ;;;@X#o=&$&o=&&$#&$&$##X@;;;           ",
"          .:;;Oo$o=&&&o=&&$#&$&$#&oO;;:.          ",
"          .:;-X#$o=$&$o=&&$#&$$$#&#X-;:.          ",
"          ;;;@X#$o=$&$o=&&$#&$$&#&#X@;;;          ",
"         .;::O#%$o=$$$o=&$$#&$$&#&$oO::;.         ",
"         .;;;X#%$o=$$$o=$$$#&$$$#&$#X;;;.         ",
"         .;;;ooooo#oooo#oooooooooooo@;;;.         ",
"         .;;-===&===&====&===&&===&=&-;;.         ",
"         .;;-&#######################-;;.         ",
"         .;;;ooooooooooooooooooooooo@;;;.         ",
"         .;;;X###o####o####o####o##oX;;;.         ",
"         .;::O#%$o=&$$o=$$&#&$$$#&&#O::;.         ",
"         .;;;X#%#o=&$$o=&$&#&$$$#&&#X;;;.         ",
"         .;;;X##@o=&&$o=&$&#&$$$#&$#X;;;.         ",
"         .;;;O##@o=$&$o=&&$#&$&$#&$#O;;;.         ",
"         .;;;O#%@o=$$&o=$&$#&$&$#&&#O;;;.         ",
"         .;;;X#%@o=$$&o=$&$#&$&$#&&#X;;;.         ",
"         .;;;X#%@o=$$&o=$&$#&$&$#&&#X;;;.         ",
"         .;::O##@o=$$&o=$&$#&&&$#&&#O::;.         ",
"         .;;;X#@-o=$$&o=$&$#&&&$#&&#X;;;.         ",
"         .;;;X##@o=$$&o=$$$#&&&$#&&#X;;;.         ",
"         .;;;O#%$o=$$&o=$$$#&&$$#&$#O;;;.         ",
"         .;;;O#%$o=$$&o=$$$#&$$&#&$#O;;;.         ",
"         .;;;X###o%###o$###o$######oX;;;.         ",
"         .;;-#$$$$$$$$$$$$$$$$$$$$$$#-;;.         ",
"         .;:;&#######################;:;.         ",
"         .;;-#oooooooooooooooooooooo@-;;.         ",
"         .;;;XooooooooooooooooooooooX;;;.         ",
"         .;;;O#&&o=$&$o=$&$#&&$$#&$#O;;;.         ",
"         .;;;O#&&o=$&$o=&&$#&$&$#&$#O;;;.         ",
"         .;;;X#%&o=&$$o=&$&#&$$$#&$#X;;;.         ",
"         .;;;X#%$o=&$$o=&$&#&$$$#&$#X;;;.         ",
"          O...XooXooooXooooXooooXooX...O          ",
"                                                  ",
"                                                  ",
"                                                  ",
"                                                  ",
"                                                  ",
"                                                  ",
"                                                  "
};
