/* XPM */
static char *_b6cb217e518448df014f83caea9729aT6g5hmUMchZrkdv8_1[] = {
/* columns rows colors chars-per-pixel */
"50 50 18 1 ",
"  c None",
". c black",
"X c #1F1E1F",
"o c #523114",
"O c #455A63",
"+ c #615C60",
"@ c #615C61",
"# c #9C6D3F",
"$ c #A76E34",
"% c #A86E34",
"& c #C77832",
"* c #A87A40",
"= c #A87B41",
"- c #C58642",
"; c #FCDA74",
": c #7F8A8F",
"> c #78909C",
", c #85DAFE",
/* pixels */
"                      XXXXXoooo                   ",
"                   .>>,,,,:--#&o                  ",
"                 .O>>>>>>@&;-o&o#                 ",
"               OO>,>>>>>@&--%o&o&o                ",
"              .>,>>>>OOXo&;#%o&o&o>               ",
"             O>>>>:OOXXX$&;#%o&o&o>>              ",
"            .>>>>>XXXXXX%--#%o&o&o@>>             ",
"            X,>>:XXXXXX#&--#%o&o&o#>,X            ",
"           .>>>>.XXXXXX#&--#%o&o&o%@>>            ",
"           O>>>OXXXXXXX#&--#%o&o&o%@>>O           ",
"           >>>@XXXXXXXo&&;%#%o&o&o&@>>>           ",
"          .,>>OXXXXXXXo&&;%#%o&o&o&@>>,.          ",
"          .,>:.XXXXXXXo&&;%#%o&o&o&@O>,.          ",
"          >>>@XXXXXXXXo&%=#o%o&o&o&@X>>>          ",
"         .>,,OXXXXXXXXo%%%%ooo%o&o&@O,,>.         ",
"         .>>>XXXXXXXXXo$%=#&&##o#o&@X>>>.         ",
"         .>>>XXXXXXXXXo&#o#=#==%%oooX>>>.         ",
"         .>>>XXXXXXXXXo&&#oo@###==&#@>>>.         ",
"         .>>>OXXXXXXXXo&&;#o#oo@#=##@>>>.         ",
"         .>>>XXXXXXXXXo&&;=#%o$oooo#@>>>.         ",
"         .>>>XXXXXXXXXo&&;%#%o&o%o#oX>>>.         ",
"         .>,,OXXXXXXXXo&&;$o%o&o&o&oO,,>.         ",
"         .>>>XXXXXXXXXo&&;@@%o&o&o&@X>>>.         ",
"         .>>>XXXXXXXXXo&&-:@%o&o&o&@X>>>.         ",
"         .>>>OXXXXXXXXo&&-@@%o&o&o&#O>>>.         ",
"         .>>>OXXXXXXXXo&&;@o=o&o&o&#O>>>.         ",
"         .>>>XXXXXXXXXo&&;@o=o&o&o&@X>>>.         ",
"         .>>>XXXXXXXXXo&&;@o=o&o&o&@X>>>.         ",
"         .>,,OXXXXXXXXo&&;@o=o&o&o&#O,,>.         ",
"         .>>>XXXXXXXXXo&&;@@=o&o&o&#X>>>.         ",
"         .>>>XXXXXXXXXo&&-:@%o&o&o&#X>>>.         ",
"         .>>>OXXXXXXXXo&&;@@%o&o&o&@O>>>.         ",
"         .>>>XXXXXXXXXo&&;#o%o&o&o&@O>>>.         ",
"         .>>>XXXXXXXXXo&&;=#=o&o&o&oo>>>.         ",
"         .>>>XXXXXXXXXo&&;=#=o&o%o#$o:>>.         ",
"         .>,,OXXXXXXXXo&&;%#%o#o#&%$#>,>.         ",
"         .>>>XXXXXXXXXo&&;#o##%=%###@:>>.         ",
"         .>>>XXXXXXXXXo&##$%%%###@ooo>>>.         ",
"         .>>>OXXXXXXXXo$%&#$###ooo#oO>>>.         ",
"         .>>>XXXXXXXXXo$%$#ooooo$o&@O>>>.         ",
"         .>>>XXXXXXXXXo&#ooooo&o&o&@X>>>.         ",
"         .>>>XXXXXXXXXo&&-#o=o&o&o&@X>>>.         ",
"          OXX.........o&&;=#=o&o&o&oXXXO          ",
"                      o&&;=#=o&o&o#               ",
"                      o&&;=#=o&o$o                ",
"                      o&&;%#%o%oo                 ",
"                      o&&;%#%oo                   ",
"                      o&&;%o#                     ",
"                      o&&;#o                      ",
"                       oooo                       "
};
