/* XPM */
static char *_22e3be597a74357bb45e94c32312289bFbLRzGIzyptVEaU_4[] = {
/* columns rows colors chars-per-pixel */
"50 50 5 1 ",
"  c #2E1B5B",
". c black",
"X c #323232",
"o c gray59",
"O c white",
/* pixels */
"                                                  ",
"                                                  ",
"                                                  ",
"                                                  ",
"                                                  ",
"                                                  ",
"                                                  ",
"                                                  ",
"                                                  ",
"                                                  ",
"                                                  ",
"                                                  ",
"                                                  ",
"                                                  ",
"                                                  ",
"                                                  ",
"                                                  ",
"         ....                        ....         ",
"        ......                .      .....        ",
"        .XXX..      ..       ...     ..XX.        ",
"        .XXXX.      XX..     XX..   ...XX.        ",
"       ..XXXX.      XX..     XX..   ...XX..       ",
"      ..XXXXXX..    ...XXXX....XX .......X..      ",
"      ..XXXXXXX.......XXXXXX.............X..      ",
"      ..XXXXXXXX......XXXXXX.............X..      ",
"    ..XXXXXXXXXX....XXXXXOOOoo...........XXX..    ",
"    ..XXXXXXXXXX....XXXooOOooXXX.........XXX..    ",
"    ..XXX.....XXX...XXXoOOo..XoX.........XXX..    ",
"    ..XX..  ....X...XXXoOOo..XoX....   ...XX..    ",
"    ..XX..  ....X....XXoOOOoXXoX....   ...XX..    ",
"    ..XX       .......XXXOOOoo...         ....    ",
"    ...         .......XXoooXX..           ...    ",
"    ..             .....XX.....             ..    ",
"                       .......                    ",
"                        ......                    ",
"                                                  ",
"                                                  ",
"                                                  ",
"                                                  ",
"                                                  ",
"                                                  ",
"                                                  ",
"                                                  ",
"                                                  ",
"                                                  ",
"                                                  ",
"                                                  ",
"                                                  ",
"                                                  ",
"                                                  "
};
