/* XPM */
static char *_22e3be597a74357bb45e94c32312289bFbLRzGIzyptVEaU_0[] = {
/* columns rows colors chars-per-pixel */
"50 50 5 1 ",
"  c #2E1B5B",
". c black",
"X c #323232",
"o c gray59",
"O c white",
/* pixels */
"                                                  ",
"                                                  ",
"                                                  ",
"                                                  ",
"          .......               ....XX.           ",
"         ........              .....X..           ",
"        .XXXXXXXX..           ...XXXXXX..         ",
"        .XXXXXXXX..          ....XXXXXX..         ",
"         ..XXXXXXXX..        ..XXXXXXXXXX         ",
"          ..XXXXXXX...      ...XXXXXXXX..         ",
"           ..XXXXXX...      ...XXXXXXXX..         ",
"            ..XXXXXX..      ...XXXXXX..           ",
"            ..XXXXXX..      ...XXXXXX..           ",
"            ..XXXXXX..      ...XXXXXX..           ",
"           ..XXXXXX...       ..XXXXXX..           ",
"           .XXXXXXX...       ...XXXXX..           ",
"           .XXXXXXX..        ....XXXX..           ",
"           .XXXXXXX..        .........            ",
"           ..XXXXXX..         ........            ",
"            ..XXXXX..          .......            ",
"            ..XXX.....        ........            ",
"            ..XXX.. ..       .........            ",
"            ..XXX.. XX..     XX.......            ",
"            ...XX.. ....XXX....X......            ",
"            ....X.. ...XXXX....XX.....            ",
"              ........XXXXXX........              ",
"              .......XXXXooooX......              ",
"               .....XXXXXOOOoo......              ",
"               .....XXXoOOoXXXoX...               ",
"               .....XXXoOOo..XoX...               ",
"                 ...XXXoOOo..XoX.                 ",
"                 .....XXoOOOooXX.                 ",
"                 .....XXXOOOoo...                 ",
"                  .....XXXX.....                  ",
"                   ............                   ",
"                       .......                    ",
"                                                  ",
"                                                  ",
"                                                  ",
"                                                  ",
"                                                  ",
"                                                  ",
"                                                  ",
"                                                  ",
"                                                  ",
"                                                  ",
"                                                  ",
"                                                  ",
"                                                  ",
"                                                  "
};
