/* XPM */
static char *_22e3be597a74357bb45e94c32312289bFbLRzGIzyptVEaU_1[] = {
/* columns rows colors chars-per-pixel */
"50 50 5 1 ",
"  c #2E1B5B",
". c black",
"X c #323232",
"o c gray59",
"O c white",
/* pixels */
"                                                  ",
"                                                  ",
"                                                  ",
"                                                  ",
"                                                  ",
"                                                  ",
"                                                  ",
"                                                  ",
"                                                  ",
"                                                  ",
"                                                  ",
"                                                  ",
"                                                  ",
"                                                  ",
"                                                  ",
"                                                  ",
"                                                  ",
"                                                  ",
"                                                  ",
"                                                  ",
"                                                  ",
"                                                  ",
"                    ..       ...                  ",
"                    XX.      XX..                 ",
"                    XX..     XX..                 ",
"                    ...XXXX....XX                 ",
"                 ......XXXX.....X.                ",
"                 .....XXXXXX.......               ",
"         ...........XXXXXOOOoo............        ",
"   .................XXXooOOOooXX.............     ",
"   ......XXXXXXX....XXXoOOo..XoX..............    ",
" ..XXXXXXXXXXXXXX...XXXoOOo..XoX.........XXXX.... ",
" ..XXXXXXXXXXXXXX...XXXoOOooXXoX.........XXXX.... ",
"..XXXXXXXXXXXXXXX.....XXXOOOoo.........XXXXXXXXX..",
"..XXXXXXXXXXXX.........XXoooXX..........XXXXXXX...",
"..XXXXXXXXXXXX...  ....XXXX....   .......XXXXXX...",
"..X...........         .......         ...........",
"..............         .......         ...........",
"...                                            ...",
"                                                  ",
"                                                  ",
"                                                  ",
"                                                  ",
"                                                  ",
"                                                  ",
"                                                  ",
"                                                  ",
"                                                  ",
"                                                  ",
"                                                  "
};
