/* XPM */
static char *_22e3be597a74357bb45e94c32312289bFbLRzGIzyptVEaU_2[] = {
/* columns rows colors chars-per-pixel */
"50 50 5 1 ",
"  c #2E1B5B",
". c black",
"X c #323232",
"o c gray59",
"O c white",
/* pixels */
"                                                  ",
"                                                  ",
"                                                  ",
"                                                  ",
"                                                  ",
"                                                  ",
"                                                  ",
"                                                  ",
"                                                  ",
"                                                  ",
"                                                  ",
"                                                  ",
"                                                  ",
"                                                  ",
"                                                  ",
"                    ..        .                   ",
"                    ..       ...                  ",
"                    XX..     XX..                 ",
"                    XX..XXX...X..                 ",
"                    ...XXXX....XX                 ",
"                   ...XXXXXX.......               ",
"                  ....XXXXXXXX.....               ",
"               .....XXXXXOOOoo......              ",
"              ..X...XXXooOOooXoX......            ",
"              ..X...XXXoOOo..XoX......            ",
"            ..XXX...XXXoOOo..XoX.......           ",
"           ...XXXX...XXooOOooXoX.........         ",
"           ...XXXXX...XXXOOOoo...........         ",
"           ..XXXXXX....XXXXXXX........X..         ",
"          ..XXXXXXX.....XX.....  .....X...        ",
"         ..XXXXXXXX..  .......   ....XXXX.        ",
"         ..XXXXXX...    .....    .....XXX...      ",
"         ..XXXXXX..               ...XXXX...      ",
"         ..XXXXX.                 ..XXXXX...      ",
"         ..XXXXX.                  ..XXXX...      ",
"         ..XXXXX.                   .XXXX...      ",
"         ..XXX...                   ..XXXX..      ",
"         ..XXX...                   ..XXXX..      ",
"         ..XXX..                    .XXXX...      ",
"           .XX..                    ..XXX.        ",
"           ..X..                    ..XX..        ",
"            ....                    .XX..         ",
"              ...                 .....           ",
"              ...                 .....           ",
"                                                  ",
"                                                  ",
"                                                  ",
"                                                  ",
"                                                  ",
"                                                  "
};
