/* XPM */
static char *_22e3be597a74357bb45e94c32312289bFbLRzGIzyptVEaU_3[] = {
/* columns rows colors chars-per-pixel */
"50 50 5 1 ",
"  c #2E1B5B",
". c black",
"X c #323232",
"o c gray59",
"O c white",
/* pixels */
"                                                  ",
"                                                  ",
"                                                  ",
"                                                  ",
"                                                  ",
"                                                  ",
"                                                  ",
"                                                  ",
"                                                  ",
"                                                  ",
"                                                  ",
"                                                  ",
"                                                  ",
"                                                  ",
"                    ..       ..                   ",
"                    ...      ....                 ",
"                    XX..     XX..                 ",
"                    ...XXXX....XX                 ",
"                   ....XXXX....XX.                ",
"                  ....XXXXXX.......               ",
"               ......XXXXOOOoX......              ",
"               .....XXXXXOOOooX.....              ",
"              ..X...XXXoOOo..XoX......            ",
"            ..XXX...XXXoOOo..XoX......            ",
"            ..XXX...XXXoOOo..XoX......            ",
"            ..XXXXX...XXXOOOoo.........           ",
"           ...XXXXX...XXXooooX.........           ",
"           ...XXXXX....XXXX............           ",
"           ..XXXXXX..  .......  .........         ",
"           .XXXXXXX.   .......   ........         ",
"           .XXXXX..              ...XXX..         ",
"           .XXXXX..              ..XXXX..         ",
"           .XXXXX..              .XXXXX..         ",
"           .XXXXX..              .XXXXX..         ",
"           ...XXX..              .XXXXX..         ",
"            ..XXX..              .XXXXX..         ",
"            ..XXX..            ...XXXXX           ",
"            ..XXXX..           ..XXX..X           ",
"            ..XXXXX..          ..XXX...           ",
"               .......       ....X....            ",
"                ......       ....X....            ",
"                  ....       ......               ",
"                                                  ",
"                                                  ",
"                                                  ",
"                                                  ",
"                                                  ",
"                                                  ",
"                                                  ",
"                                                  "
};
