/* XPM */
static char *_4e96e0fc7444e45f8684c63e0794bdbe3llBHQ1LX1s0Ouj[] = {
/* columns rows colors chars-per-pixel */
"50 50 254 2 ",
"   c #02092A",
".  c #05083A",
"X  c #01133B",
"o  c #09153A",
"O  c #181839",
"+  c #111330",
"@  c #201D38",
"#  c #2F2E3D",
"$  c #00071E",
"%  c #010C45",
"&  c #010D4B",
"*  c #050848",
"=  c #011445",
"-  c #021A44",
";  c #01144B",
":  c #021B4D",
">  c #0B1647",
",  c #161B47",
"<  c #011553",
"1  c #021B54",
"2  c #001D5A",
"3  c #091857",
"4  c #151C54",
"5  c #000D56",
"6  c #281E48",
"7  c #02224C",
"8  c #05244B",
"9  c #1C2349",
"0  c #072457",
"q  c #172758",
"w  c #0A3056",
"e  c #29284A",
"r  c #332B4C",
"t  c #372B48",
"y  c #29334D",
"u  c #3A354C",
"i  c #292A56",
"p  c #332C52",
"a  c #362C57",
"s  c #2A3357",
"d  c #3C3C5B",
"f  c #393656",
"g  c #072962",
"h  c #03346C",
"j  c #043769",
"k  c #023574",
"l  c #033A74",
"z  c #023C7B",
"x  c #093979",
"c  c #163A75",
"v  c #0F336E",
"b  c #2A3462",
"n  c #3A3863",
"m  c #2E2B61",
"M  c #0F1E61",
"N  c #433C5C",
"B  c #453757",
"V  c #49384E",
"C  c #473C62",
"Z  c #503F63",
"A  c #38445B",
"S  c #09467A",
"D  c #144C7C",
"F  c #1C4C7C",
"G  c #174778",
"H  c #18527C",
"J  c #0F4B72",
"K  c #244D7D",
"L  c #284C79",
"P  c #28557B",
"I  c #375072",
"U  c #44435B",
"Y  c #4A425C",
"T  c #484658",
"R  c #54475C",
"E  c #55525C",
"W  c #4D4049",
"Q  c #4A4567",
"!  c #544C6B",
"~  c #584A66",
"^  c #4D546A",
"/  c #5B546C",
"(  c #575768",
")  c #4A4774",
"_  c #574C73",
"`  c #545573",
"'  c #5B5572",
"]  c #575777",
"[  c #4C5774",
"{  c #66586A",
"}  c #634D73",
"|  c #645975",
" . c #644F6E",
".. c #5B6371",
"X. c #65676B",
"o. c #64647B",
"O. c #696678",
"+. c #78697A",
"@. c #77787D",
"#. c #737273",
"$. c #605654",
"%. c #85797C",
"&. c #87827F",
"*. c #083D83",
"=. c #163985",
"-. c #094785",
";. c #144C83",
":. c #1C4D84",
">. c #194886",
",. c #0A5286",
"<. c #1A5486",
"1. c #1C5895",
"2. c #104992",
"3. c #244D83",
"4. c #274A87",
"5. c #23538A",
"6. c #295687",
"7. c #345687",
"8. c #265895",
"9. c #314F8B",
"0. c #19618F",
"q. c #266296",
"w. c #265CA4",
"e. c #2662A1",
"r. c #675584",
"t. c #577A99",
"y. c #4C7397",
"u. c #6A6785",
"i. c #766B89",
"p. c #6B7686",
"a. c #7A7585",
"s. c #7B758A",
"d. c #7C7B8C",
"f. c #777788",
"g. c #7C7A95",
"h. c #787795",
"j. c #6F6793",
"k. c #4B77A6",
"l. c #597BA8",
"z. c #5B78B3",
"x. c #506FAC",
"c. c #6064A0",
"v. c #837C86",
"b. c #827B8B",
"n. c #86768A",
"m. c #847C93",
"M. c #887B96",
"N. c #907996",
"B. c #7A8287",
"V. c #738597",
"C. c #5883A8",
"Z. c #5783AF",
"A. c #6689A8",
"S. c #7289AC",
"D. c #6A8AB4",
"F. c #7191B3",
"G. c #5E839E",
"H. c #7ACCF7",
"J. c #7CD4F9",
"K. c #79CEEB",
"L. c #75D6DD",
"P. c #84848B",
"I. c #878689",
"U. c #848293",
"Y. c #8C8B94",
"T. c #8C849C",
"R. c #878998",
"E. c #958899",
"W. c #97929A",
"Q. c #908A8E",
"!. c #A19C9D",
"~. c #8B8AA2",
"^. c #968AA5",
"/. c #8996A4",
"(. c #9899A8",
"). c #8C9CBA",
"_. c #959ABA",
"`. c #9A88B0",
"'. c #A79BA8",
"]. c #A79DB4",
"[. c #AB97AD",
"{. c #99A7AB",
"}. c #8AA4B8",
"|. c #97A9BA",
" X c #98B4B8",
".X c #A4A3AD",
"XX c #A8A5AA",
"oX c #A9A8B6",
"OX c #B3AABA",
"+X c #A9B6BC",
"@X c #B6B6B9",
"#X c #B1ADAF",
"$X c #9DA39F",
"%X c #C3BDBB",
"&X c #C3ADBB",
"*X c #AEC3BC",
"=X c #C3C9BD",
"-X c #949CC4",
";X c #97A6C4",
":X c #9AB6C6",
">X c #A9AAC2",
",X c #ADBBC4",
"<X c #ACBCCD",
"1X c #A8B7C7",
"2X c #B3BCC4",
"3X c #B6B9CB",
"4X c #ABB9D5",
"5X c #B6BAD6",
"6X c #BDBEEC",
"7X c #C2BAC7",
"8X c #C5BCD0",
"9X c #ACC2C8",
"0X c #BBC4CC",
"qX c #B8C6C9",
"wX c #ADC5D4",
"eX c #BBC3D4",
"rX c #B7C6D6",
"tX c #B1D2C9",
"yX c #87C9E6",
"uX c #86D0F4",
"iX c #B6DCF8",
"pX c #B8CDE8",
"aX c #B9E6FB",
"sX c #BCEFF8",
"dX c #C5C3CC",
"fX c #C9C7CA",
"gX c #CBC4D3",
"hX c #C4C7D5",
"jX c #C7DADA",
"kX c #D9D9DA",
"lX c #D4D2CC",
"zX c #E5DADA",
"xX c #D7E7DD",
"cX c #E7E3DD",
"vX c #DADBE6",
"bX c #C9D0F1",
"nX c #E4DCE4",
"mX c #E8DDF4",
"MX c #DCE3E5",
"NX c #DAE5EA",
"BX c #C4EDFF",
"VX c #C4F2FE",
"CX c #C8F6FF",
"ZX c #D5F6FC",
"AX c #D8E7F4",
"SX c #E5E5EB",
"DX c #E4EBEC",
"FX c #E8E7E7",
"GX c #EAF4EA",
"HX c #E8E7F6",
"JX c #EAF7F9",
"KX c #FCFEFE",
"LX c #F9F8F7",
"PX c #F4ECEC",
/* pixels */
"H.BXGX, A +XOXn.B.A c <.F D G N v.U.OXOXA i DXCXK.H.ZXcX, Q &X>XU.d.d x D 4.;.c n B.U.#XOXQ i PXBXyX",
"CX#Xn./ a.M.h.d.HXv.& >.>.3.* M.MXB.h.U.i._ v.@XVXVX{.b.` h.d.p.B.HXn.% <.;.;.* Q.NXn.f.B.i.~ I.<XZX",
"DX+.; 2 } PXA.C.7.eXE > q * ] qX7.k.S.LXQ 0 = s.MXzX@.& - / KXA.C.P dX^ - q X | qX7.z.F.JX! 8 & %.FX",
"i ! 0 <.= Q 1XG z 6.qX0X# dX2X6.x ,.4XV < 8.8 ' 4 , ~ 1 w.= W <Xc -.6.eX7Xt dX9X9.-.J +Xu < 1.3 _ a ",
"f s.Q = e.; E.C.k x }.P.b.T.|.l j C.Y.X 8.: T j.! ) i.Y 2 e.X ^.z.h l 1Xm.h.Y.F.k g A.R.; 8.= Q u.d ",
".X^.FXf < ; XXtX+XL ;Xr.LX' }.:.<XrX'.; - f JXT.fX@XQ.PXf = ; .XqX1X:.).{ KX{ -X:.4XhX(.& : B JXP.OX",
"].g.F.<XN.(.{ m { eX>XO.KXo.1XeX/ b O.W.Y.1XS.a.0X@XV.S.3XQ.'.] r { rXoXO.KXO.+XrX_ s u.'.P.5XA.@.oX",
"v.U.t.4.Z.tXm S X ) FX/ FX` FXY - z m hXZ.3.l.f.[.^.B.k.G S.hXq 2.= E AX' cX] FXB 1 c s qXD.>.C.g.m.",
"B.vX7.k x ,XR 7 8.: Q e X a B 1 <.: } 4Xj *.3.DXa.f.NX9.z l <X_ 1 8.3 U r o e B 1 1.1 / ,Xg *.6.FXd.",
"A E.,X6.k L rXn 3 H 0 '.d .Xi D M f rXK k 6.rXE.d U ^.wX3.g 7.3Xd ; ,.i '.a XX0 ;.4 T eX4.l P 8X~.d ",
"v % X.1X;X).,XFXf 3 , xXGXjXO q a cX1X}.|.1XX.. x v . X.4X|.}.*XnXd 8 6 DXJXkX> 0 B nX+X).;X<X{ ; c ",
"-.<.> gXP.r.O.^ a '.kXbXJ.aXkX].s ] O.E I.gX> 3.,.H 4.. kXv.` O.E p .XbXjXH.bXNX{.a ' X.' Q.fX> :.F ",
"G -.q t b.LXKXGX  Q JXH.yXJ.ZXN   DXKXKXm.r 7 2.G -.D M e T.KXKXSX  Q KXK.uXK.JXn   HXKXLXa.p g :.>.",
";.K 3 0Xm.| o./ p .XNXaXH.iXDX.Xr ] X.` m.fX- 5.F D :.> dXd.' O.` r XXNXiXK.aXMX'.e ( o.' &.qX< 3.F ",
"x & [ rX;X/.2XzXd i e xXJXvX6 q U nXOX|.|.@X( % S =.% ..3X|.}.,XzXf q r MXJXkXe q T zXOX).;XwX~ = G ",
"f U.qX7.z 6.dXY 3 H q #XY oX4 ,.< T rX4.z 6.0Xn.y f m.qX6.z K rXT : 2., #X) XX, ,.- Q pXD l 7.0Xg.d ",
"P.DX9.*.h ,X/ < 0.3 N e $ i B 3 8.: ' 4Xk x 6.GXi.f.DX9.S j ,X! < 0.2 V p   s f 2 8.; | 1Xx x 9.HXd.",
"f.I.k.,.l.0Xi 2.1 f lX] SX! FXy : J m 7Xt.S k.b./.E.Q.k.;.z.5Xi S < B vX` SX_ cXd > S b hXy.J k.s.m.",
".Xd.S.4XY..XO.i ~ eX2XX.KXO.3X0XQ i ( .XW.1XF.f.qX2Xf.A.4XE.oX' e ! bX3XX.LXO.<X3X~ s ..'.W.1XA.B.+X",
"OXY.PXV = 3 '.hX3X5.)./ KX/ {.9.wX3X.X< & Q JXv.gX2XY.JXB = = XXhX<XP _./ KX| _.9.<XhX(.< = Q LXd.@X",
"A M.! ; 8.= Y.C.h z |.v.U.M. Xk k G.Q.; 8.= ' n.r.^ m.! - 1.2 W.l.j z :XB.U.%.|.h j A.N.> 1.< | h.Q ",
"9 Q 1 8.: a 5XF S 3.5XgXt fX,XP l 5.<Xa 7 <.1 E + @ ! 0 5.; B +X:.-.5.2XfXr kX<XK z F 2Xu 2 w.o ) 6 ",
"DXa.1 8 T HXS.y.3.eXX.= q X O.3X3.k.A.JXU 0 < g.lXkXo.< X ^ PXA.y.K qX| > q * +.0X3.z.C.ZXQ 0 X %.FX",
"ZX'.j.T h.^.a.U.DXT.* 3.,.<.. ^.FXm.g.Y.m.T i.XXVXZXXXj.~ g.I.h.U.HXM.* F >.:.  E.AXI.h.W.%.Y j.|.ZX",
"uXCXkX, ~ %X,X`.s.d x ,.c D c f @./.9X7X) 6 kXsXK.yXCXkXO [ 7X@XR.B.s x 3.=.D x C p./.,X3X_ O kXsXyX",
"J.sXvX, ] %XfX^.p.u c J >.;.=.s i.'.%XfX^ + cXBXK.J.VXlX+ ] gXdX^.i.u c S ,.D v B @.!.&XgX^ + SXsXyX",
"VX{.n.~ i.I.p.a.DXd.% 5.D <.* T.HXP.p.d.i./ a.oXCXaXoXn.` a.B.p.d.JXm.% <.,.F & T.NXd.f.V.o.| f. XZX",
"PX+.* 4 E LXA.l.7.rX( o g ; ..qX7.k.F.LXQ 1 < g.kXvX+.. 0  .LXA.z.P *X/ 3 q > o.wX6.z.D.JXR 8 * I.MX",
"i _ 7 1.< C 5XD x 6.5XdXp fX2X9.j D 4XV - 8.8 ~ O O [ 7 1.% Z <X=.-.8.0X7Xr gX<X9.z K <Xf < 1.0 ! r ",
"u h.U : e.; I.t.j x }.P.U.M.|.x h l.Y.; 1.: Q h.] ! p.U : e.; E.t.g h  XU.m.T.}.j j A.T.- 8.% ! u.Q ",
"XXY.LX# = ; oXhX:XF ;X] LX/ }.3.1XrX.X= ; u LXB.gX8XY.PXf = X oXqX<X4.}.( KX/ ).L 4XrX(.; 1 B LXU.@X",
">Xf.D.1XE.'.u.i } rXoXO.KXO.1XeX} e u.'.Y.2XD.p.qX@Xg.A.<XE.(.| i  .eX1XO.LXu.3XrX! y o.[.Q.,XD.f.OX",
"f.B.t.3.z.hXe 2.; Q cX$.MX' FXN ; S s eXA.4.k.b.(.W.U.x.<.A.hXq J 1 Z zX( HX( FXV 1 G y rXz.D l.d.R.",
"P.HX7.z j 1XE < 6.: C i . p d = 1.3 ~ 1Xl k 7.mX#.n.HXF S h <X~ < 8.3 f e . p d 0 8.; ' <Xg *.8.SXv.",
"N N.+X6.k 4.rXu 3 S w (.B XXq 1.1 B 6XP j 6.qXT.s u T.*X5.l 4.5XN 0 ,.9 oXd ].4 H = U eXK z P 2XM.C ",
"*.% o.9X|.;X,XSXn 4 @ NXKXvXO , d nX,X).;XwX| % x =.. | 2X|.|.<XzXs 9 e MXJXMXO , Y SX1X_.;XrX{ = c ",
"J D = gXb.( | _ e OXNXjXL.aXMX.Xr ' X./ P.=Xo :.F -.<.> gXs.~ o./ p ].vXiXyXiXMX].e ( X._ T.0XX :.5.",
">.<.q t m.KXKXcX. U JXJ.uXH.JXd . SXLXKXm.a g :.=.;.D w r E.KXLXmX. Q JXK.J.uXJXn + SXLXKXB.r v :.x ",
"S <.O fXb.{ ' ` # OXSXpXuXiXkX.Xy _ o.` I.%X% 1.D D L : fXs.o.| ` s OXxXaXH.iXxX'.p ' O./ v.7X. <.<.",
"c % | wX}.-X,XvXN 8 9 MXJXvX9 9 N zX3X_.;X5X' . x c * ] wX{.).3XzXu e e NXLXzX, 9 Q NX+X_.;X9X' ; c ",
"f n.qX7.h <.tXB 1 <.q #Xn oX0 1.1 C 0X3.h I eXU.a a ^.9X5.h P wXV 2 D e oXA OX4 :.2 Q 0X4.j 8.8Xg.d ",
"U.HX6.*.j 5X} = 1.; Z p   r u ; 8.= } 4Xj S 7.ZXp.@.DXP -.j 5X) : 8.0 N t . t f 2 8.= | 1Xl S 6.SXB.",
"s.M.x.D G.0Xi D < T vX/ HX/ nXd - G i 0XC.D z.%.{.Q.P.x.F t.0Xy S 2 U nX^ FX] FXd : J b dXt.G C.d.b.",
"oXv.S.<XE.oX] q ~ eX:XX.KX| 3XwX) q o.$XE.3XF.a.qX&Xs.S.<X^.>X( q ' gX.XO.LXO.1XwX~ b r.XX/.+XD.a.3X",
"].I.GXN = ; '.0X<X4.).` KX_ ;XF eXeX].< & B JXI.dX3X~.HXt = ; OX3X,XP -X| KX( ).6.<XdX!.= ; R JXP.oX",
"Q b.Q < q.- Q.Z.g *.;XN.P.P.}.l g A.P.1 8.= ^ i._ ^ d.~ < e.= W.C.h k ;Xd.B.m.{.h h A.Y.; 8.; / u.Q ",
"e Q 7 q.: f 5XG *.P <XfXr lX4XP -.F 3Xa 1 6.7 ^ o O Y 7 e.X Y ,X;.*.8.qXdXp gX9X5.z F ,Xt 1 8.3 ` e ",
"FXs.5 1 ~ JXG.l.3.8X| o g * O.9X5.k.A.GXC q * n.kXnXi.5 : ' JXD.t.8.0X .> 0 . u.3X6.y.F.JXC 3 = v.FX",
"VX|.#.) g.R.a.T.FXM.; K :.:.= T.SXg.B.Y.h._ #.|.VXVX{.#.! h.R.V.R.SXM.= :.:.>.* ~.SXP.d.Y.h.) @.#XCX",
"yXZXFXe N oXoXf.B.B v G :.G v d b.f.{.oXf e FXZXyXyXZXSXe N oXoXp.P.f v :.S :.c U d.a.oX.Xd p PXaXuX"
};
