/* XPM */
static char *c91acf431bb847f4b2e54bf0da7d7e1eSpATlfR74550o0gA[] = {
/* columns rows colors chars-per-pixel */
"50 50 221 2 ",
"   c #0C0C03",
".  c #150601",
"X  c #1D0505",
"o  c #150B03",
"O  c #1A0C05",
"+  c #110209",
"@  c #1C060A",
"#  c #150E0B",
"$  c #1B0B0B",
"%  c #1C0E15",
"&  c #1C1910",
"*  c #220304",
"=  c #2C0404",
"-  c #230C03",
";  c #2A0D06",
":  c #24060B",
">  c #2C060B",
",  c #230B0B",
"<  c #2D0C0B",
"1  c #340604",
"2  c #3B0400",
"3  c #340C04",
"4  c #3B0B05",
"5  c #31050A",
"6  c #38020F",
"7  c #330C0C",
"8  c #3C0C0C",
"9  c #241206",
"0  c #2A1105",
"q  c #23110B",
"w  c #2C130C",
"e  c #341202",
"r  c #3A1305",
"t  c #3C1904",
"y  c #33130C",
"u  c #3B120D",
"i  c #3A1A0B",
"p  c #250B14",
"a  c #2B0D11",
"s  c #320711",
"d  c #340D12",
"f  c #3C0D12",
"g  c #3C0F1A",
"h  c #3A0412",
"j  c #231112",
"k  c #2D1213",
"l  c #341213",
"z  c #3B1213",
"x  c #311419",
"c  c #3C141A",
"v  c #3D1A14",
"b  c #430B04",
"n  c #4A0E04",
"m  c #43070F",
"M  c #430C0D",
"N  c #4A0D0C",
"B  c #490502",
"V  c #520E05",
"C  c #580608",
"Z  c #530E0C",
"A  c #590A0C",
"S  c #421205",
"D  c #4A1205",
"F  c #431A03",
"G  c #42130C",
"H  c #4C130C",
"J  c #42180A",
"K  c #4F190D",
"L  c #541007",
"P  c #55150D",
"I  c #5A130D",
"U  c #551A0E",
"Y  c #5F190F",
"T  c #420610",
"R  c #430D12",
"E  c #4C0D14",
"W  c #440E1A",
"Q  c #490E1A",
"!  c #540D13",
"~  c #5C0F15",
"^  c #540D1B",
"/  c #5D0D19",
"(  c #431214",
")  c #4B1314",
"_  c #421815",
"`  c #4B1A15",
"'  c #44141A",
"]  c #4B141A",
"[  c #43191B",
"{  c #4D191C",
"}  c #531414",
"|  c #5B1314",
" . c #541A15",
".. c #5C1A15",
"X. c #54141B",
"o. c #5B151A",
"O. c #551B1A",
"+. c #5C1A1A",
"@. c #671905",
"#. c #62110E",
"$. c #61190D",
"%. c #7C1C0F",
"&. c #72130D",
"*. c #650F1A",
"=. c #640A14",
"-. c #631514",
";. c #691614",
":. c #631B15",
">. c #6B1A16",
",. c #64151A",
"<. c #6A141B",
"1. c #641B1B",
"2. c #6C1C1B",
"3. c #741515",
"4. c #7C1515",
"5. c #731B14",
"6. c #7B1B16",
"7. c #73161C",
"8. c #7D161B",
"9. c #741C1B",
"0. c #7B1C1C",
"q. c #5F2116",
"w. c #57221C",
"e. c #6F2013",
"r. c #63211C",
"t. c #6A221D",
"y. c #762216",
"u. c #7A2416",
"i. c #74221D",
"p. c #7C221D",
"a. c #76281E",
"s. c #431923",
"d. c #5E1520",
"f. c #6D1720",
"g. c #641D22",
"h. c #6C1D21",
"j. c #631523",
"k. c #7E1624",
"l. c #751C22",
"z. c #7C1D22",
"x. c #7D1D29",
"c. c #5E2221",
"v. c #642324",
"b. c #6C2222",
"n. c #742222",
"m. c #7C2323",
"M. c #762822",
"N. c #782821",
"B. c #742228",
"V. c #7D222A",
"C. c #851C0F",
"Z. c #831414",
"A. c #8A1715",
"S. c #821B14",
"D. c #8B1C15",
"F. c #82151C",
"G. c #8D171C",
"H. c #831B1C",
"J. c #8C1C1C",
"K. c #921817",
"L. c #921D1D",
"P. c #991F1C",
"I. c #9C171C",
"U. c #84221C",
"Y. c #8B221D",
"T. c #88281C",
"R. c #832317",
"E. c #912217",
"W. c #92251E",
"Q. c #9D231E",
"!. c #9B291F",
"~. c #831622",
"^. c #8A1621",
"/. c #841C22",
"(. c #8C1D23",
"). c #851E29",
"_. c #8B1D2A",
"`. c #931722",
"'. c #931D24",
"]. c #9A1E23",
"[. c #931E2A",
"{. c #9C1E29",
"}. c #A01E26",
"|. c #832323",
" X c #8C2323",
".X c #832925",
"XX c #8C2923",
"oX c #83222A",
"OX c #8C242A",
"+X c #862828",
"@X c #8B292A",
"#X c #912221",
"$X c #912423",
"%X c #932224",
"&X c #922525",
"*X c #962526",
"=X c #932424",
"-X c #992225",
";X c #9A2626",
":X c #9B2325",
">X c #932925",
",X c #9A2927",
"<X c #9B2822",
"1X c #93242A",
"2X c #99222A",
"3X c #9A242B",
"4X c #972929",
"5X c #932B2A",
"6X c #9B2C2B",
"7X c #9D302B",
"8X c #952535",
"9X c #992633",
"0X c #972831",
"qX c #9D2932",
"wX c #A02422",
"eX c #A62927",
"rX c #A2262B",
"tX c #A22A2B",
"yX c #A9262C",
"uX c #A02331",
"iX c #A02D34",
/* pixels */
"< } o.d.K | X.P c 7 =. .| |  .| a R o.A +.o.} | ,.@ ^ I ,.o.P | ^ = | } ,.~ ) o.<.E O o.~ X.+.o.o.} ",
"-.Q.#X XW.:XOX<X+.:.,XXXY.XX X,X` 0.4XY.XX#X=X X;Xu  XY.XXOX>X XOXD ,XY.&X%XXX X#Xp.J 5X#X XXX X XU.",
" .1X0.9.0.~.2. X} } 1X0.8.z.8.(.8 9. X9.9.F.^.0.XX< x.H.z.k./.8.oX3 OX8.0.~.~.8.0.n.4 OXF.8.8.8.z.9.",
"b 0.2.t.t.l.1.9.H H i.:.9.r.2.0.u :.>.:.2.r.0.>.9.; 1.5.2.h.r.9.2.3 i.>.2.2.t.2.>...4 i.>.9.t.h.2.:.",
"< ( 8 ( $ f R u d y f f ' O l R < z 8 R R O z f ( < g z M g   ) z 7 R y R a , ( ( d w f u ( , < ( 8 ",
"5X@X X&XH 0.;X|.2X4X#X-X2XZ H.%X2X*X&X;X].H  X%X*X;X1X&XP.(.G :X&XrXL.U.2X9.-.*X-X#X6X'.=X-X;.-.rX-X",
"3.7.0.+XE l. X0.8.9.9.8.oX4 2.+X7.9.9.i./.e oXm.5.0.l.9.p.z.w XX7.8.0.2.oX+.P @X3.7.0.8.i.|. .} |.0.",
"p.).9.N.m f.p.z.|.0.N.8.oXu ;.|.m.0.0.i.oX3 _.9.p.a.z.k.p.l.7 J.m.9..X9.oX .C +Xi.N.8./.i./.} X..X0.",
", v 7 8 q 7 8 z j 7 8 4 y < 7 7 p d 8 5 l 7 7 8 M % 7 r T x - y l * f w 8 7 - y ( 5 $ u R w d , f 7 ",
"#.*XY. X@X2X X;X..>.>XY. X*X*XrXG 9.,X&XXX].].*XW.` z.W.*XOX-X;XV.L 4X|.%X*X-X=X Xu.H -X[.W.1X2X XH.",
"} 2X0.5.H.F.>. X! } 5X0.9.z.>./.u 2.(.4.9./.8.t.%X3 9.J.p.2.F.5.).4 1X8.i.9.F.>.F.9.5 ,Xx.6.t.4.p.7.",
"P [.0.m.|.(.i.&X+. .1X0./.|.m.%XG 2.@X.X/.m.(.m.+Xu n.J.|.z.(.H.m.S @XF.|.z.(.U.oXN.M  Xz.H.m.(.|.9.",
"O z 7 z O 7 l u , # 8 7 ( , k ( , , < 7 z & z 7 7 . k 8 8 l $ G 7 O 8 < z , , z d w X w d u a k z < ",
".X|.H.(.V 3.(.p.(.|.L.(.(.n 9.p.`.(. XH.F.e m. XJ.J.OXF.D.m.u H.(. XG.0.[.:.U |.G.J.[.p.|.Y.-.H #XH.",
"0.9.0.@XJ 9.OX9.0.i.i.m.(.3 0. X9.9.i.n.OX3 _.F.i.0.B.9.H.x.7 '.9.i.0.9.[.1.H 2Xp.i.V.5.l.J.o.X.|.0.",
"'. XH.OXH 9.1XU.J.H.p.U.[.i /. X|.(. Xm.1X4 qXm.U.D.oX/.Y.oXf ,X Xu. XU.[.1.H 3XJ.U.m.K.+X-XO.o.4XU.",
"z ( ( M 9 1 ( u c l ) ( ( X 7 ( ' W v m z , g Q R s.x R ) R o M W ' z v ^ d * ( ) 8 g ( Q ( s , G u ",
"N 0.7.9.2.z.9.z.Z n 6.>.p.i.9.0.4 | 9.5.i.2.9.i.9.2 ..5.5.n.b.5.2.1 >.>.7.l.i.2.5.Y 4 6.7.y.b.i.0.7.",
"K 6Xp.a./.1X5.%XU U 4Xu.6.|.6.Y.t i.-XS.U.J.J.u.>Xe m.D.R.U.J.S.+Xt 6XH.U. XH.U. Xu.e wXF.%.u.G.U.u.",
"I 2XF.H.(.[.0.-Xo.1.uXoX~._./.3X_ B.2Xz.oX_.(.m.OXz oX(. XV./. Xx.G 0X~.).).F.|.OXn.u 3X_.p.V._.oXz.",
"3  .} O._ X.`  .< 7 ! ) X.( ) } = R ~ ) X.( | | | * E  .A { ] Z X.= ~ | / { X.} ^ m > } ^ } X.] ] ( ",
"o.| | ,.7 E o.` +. .| ,.1.1 } I o.O. . .+.9 ..I ..O.+...-.{ 0 | O.| P  .,.u 3 ..1. .O. .+...M y >.| ",
"OX+X/.OX} x.9X@X1X|.m.(.1Xb m.&X1X XU.|.`.r 3X XH.1XOXJ.*XV.b qXF.6XL.|.3X2.I iXJ.|.1XR.@X].,.o.<XY.",
"S.U.6.+Xn 0.L.S.J.4.i.G.1Xr z.(.0.H.y.U.`.3 3X0.R.3.m.H.U.V.4 1XH.6.A.a./.;.P 2X0.a.8.4.M.I.O.o.OX0.",
"g.-.,.r.3 ! v.| 1.w.-.2.2.= ` 1.g.+.<.+.*.0 ..:.+.9.g.o.;.O.# 2.,.B. ...h.) 3 c.1.,.v.O.1.2.w y 1...",
", X.) E ( ^ ( { 5 < } E X.[ ] ! 5 8 E ) o.v X.N { . R / G X.Q ! ] X ( ) X.] E } } R = ( ) / E ^ | E ",
">.6XY. X>X:XY.eX1.q.6XT.W.5X|.tX .N.6XXX>XXX>X X6XJ .X!.XX@X*XXXOXF 7X=XXXXX=XXX>X.XV 6X=XW.4X&X=XU.",
"P (.9.2.9.F.9.L.X.} [.9.4.F.3.1X8 h. X4.6.F.F.8.L.7 l.S.F.9.F.9.k.e {.8.F.0.8.9.k.b.2 [.F.5.0.7.|.0.",
"H ).9.7.z.k.>.p.Q } /.2.9.n.h.l.z ,.0.9.M.l.l.h.|., g.5.9.l./.2.b.e 8.t.8.B.n.7.l.+.y z.1.t.z.l.2.-.",
"9 u y z O < l y a < M u z . y z , 8 u 8 z X f l 4 , l 3 m l . 8 l ; M w R < O ( R 7 q m 8 u < : G 8 ",
";XJ.=X>XU 8.tXL.4X#XXX=X*Xn H.4XXX;X>XY.#XD -XXXJ.yX1XR.Q.oXr 6X XrX<XR.*X5.P 6X%X#X&X:XL.;X:...tX%X",
"3.i.0.~.` 7.^.9.6.4.t.8._.u x.8.0.Z.2.9._.0 [.8.9.0.7./.6.V.8 '.n.4.i.9.x.,.~ [.2.9.2.2.7._.) o.|.0.",
"a.p.9.l.) <.|.p.oX9.a.0.z.3 2.m.m.z.9.m.~.e H.m.9.|.l.8.u.b.7 |.9.|.p.0.m...H oXF.S.oXe.m.Y.` H U.0.",
"> R ( ' a f R 8 > < ( f ] q f m a d f ( Q $ R 8 ( X g ) 4 c p R l = f f W x < R z y , u f N d f ) f ",
";.*X X#XXX2XXX,X-.-.*X X,XXX#XtX} 9.>XY. X+X2X&X*X) oXW.#X1X2X%X|.P &XXX[.1X>X*XXXa.B =X1X>X5X X XH.",
"P  X6.%.6.H.>.U.` H (.0.F.8.&.Y.u :.|.5.5.H.5.0.Y.w 2.%.8.0.Z.5.m.e  Xa.Z.8.0.5.8.t.4 4X0.@.0.9.p.9.",
" .OXU.U.|.(.9.+XX.+.[.0./.@Xm.U.] 2. XH..X Xz.z.%Xf V.R./.m. Xm.).G (.i.[.OXz.p.OXt.( (.oXU._.~.|.0.",
"@ g 7 7 , 7 l z : @ m 7 f , < z @ > 8 7 z * d l 8 + d 5 f a O l h . m < W d * v 6 < % m s 7 a k f 7 ",
".X X|.|.| 7.|.0.OX|.U.|.|.b 7. X|.XX X|./.b  X|.|.@XoX0.W.z.4  X|..XXX|.|.-.A +X*XJ.V.U.). X .} XXU.",
"8.4.0.m.G <.OX0.4.0.5.0..XS m./.6.0.5.i.OX3 OX6.5.Z.9.0.C.m.l '.9.F.5.0.m...I 1X5.6.l.y.k.'.} | |.8.",
"U._.F.5XE x.=X|.(.|.|./.8XM z.2XH. X|.|.[.b [.(.|.H.oX(.Y.oX8 3Xn.[.|.z.OX2.| rX/.(.|.|.F.3X+.j.&X X",
"y z u u . 5 u u 8 u u ( ( o w u z G G u (   _ y G u z G G l   u z 8 M y ( w . z u y w u _ ( , : ( u ",
"Z 0.p.|.a./.m.p.` } 0.0.F.z.8.(.4 | 0.9.|.9.F.8.5.u ,.6.8.l.0.F.9.r 0.9.~.x.8.H.H.:.M 8.9.0.m.m.0.3.",
"X.XXF./.S.(.x. XX.| 2X0././.oX X] l.1XF.|.(./.oX3Xd V.Y._.oXJ.oX_.r [.oX~.).(.p.(.b.4 8Xx.m.(.F.m.n.",
",.<XH.J.C.L.8.W.+.-.rXU.J.Y.Y.=X) 9.*XS.6.J.S.H.;X4 |.D.J.H.A.U.'.F :XY.J.(.J.u.L.a.D qXU.U.J.J. XU.",
": ) ( ' v ) ' ) j q ) ( E ( ( X.# x { ( { [ X.) ( # c ) ] ' ' ) c   ) ( ] ' R ) ) l O E ( ( [ [ ) R ",
"..1.....7 ! :...1...-.,.1.y H ..1.<.-.| o.0 1...-...o.-.$. .w | 1.-.>...1.` r 1.:... .:.2.>.u 8 2.:.",
"L.[.H.5X} x.=X XL.Y. X(.9Xn /.*XJ.#X XOX[.S 2X'. XJ. X'.E.oX8 rX0.}. XU.1X>.I rX/.'.J.Y.J.rX..o.>X X",
"0.z.0.|.( 2.H.9.0.l.l.0.|.M h.U.9.6.l.0.z.G p.m.9.0.n.0.U.l.z |.9.z.z.6.oX+.}  X9.0.9.0.0.). .| |.0.",
"5.l.7.0.z ,.0.2.9.h.2.7.z.8 1.0.9.5.h.9.9.7 9.9.9.7.b.3.6.f.7 0.9.9.9.3.m.X.H 0.2.7.2.7.7.k.) N p.7."
};
