/* XPM */
static char *ea54c5c584e54870fbe4364dd0939230z7y1qAhdmWwuDh4i_6[] = {
/* columns rows colors chars-per-pixel */
"50 50 2 1 ",
"  c #2E1B5B",
". c #DFDF20",
/* pixels */
"                    ..........                    ",
"                ..................                ",
"              ......................              ",
"            ..........................            ",
"          ..............................          ",
"         ................................         ",
"        ..................................        ",
"       ....................................       ",
"      ......................................      ",
"     ........................................     ",
"    ..........................................    ",
"    ..........................................    ",
"   ............................................   ",
"   ............................................   ",
"  ..............................................  ",
"  ..............................................  ",
" ................................................ ",
" ................................................ ",
" ................................................ ",
" ................................................ ",
"..................................................",
"..................................................",
"..................................................",
"..................................................",
"..................................................",
"..................................................",
"..................................................",
"........................  ........................",
"........................  ........................",
"........................  ........................",
" .......................  ....................... ",
" ......................    ...................... ",
" ......................    ...................... ",
" ......................    ...................... ",
"  ....................      ....................  ",
"  ....................      ....................  ",
"   ..................        ..................   ",
"   ..................        ..................   ",
"    .................        .................    ",
"    .................        .................    ",
"     ...............          ...............     ",
"      ..............          ..............      ",
"       .............          .............       ",
"        ...........            ...........        ",
"         ..........            ..........         ",
"          ........              ........          ",
"            ......              ......            ",
"              ....              ....              ",
"                .                .                ",
"                                                  "
};
