/* XPM */
static char *_f730064eb78495e8c761253398494c0pt12LQlhEpe8Iji4_2[] = {
/* columns rows colors chars-per-pixel */
"50 50 7 1 ",
"  c None",
". c gray30",
"X c #CF0000",
"o c #F00000",
"O c #FF3030",
"+ c gray86",
"@ c #F8F8F8",
/* pixels */
"             XXXXXXXXXXXXXXXXXXXXXXXX             ",
"             XXXXXXXXXXXXXXXXXXXXXXXX             ",
"          XXXXoOOOOOOOOOOOOOOOOOOOoooXXX          ",
"          XXXXoOOOOOOOOOOOOOOOOOOOoooXXX          ",
"        XXXXXXoOOOOOOOOOOOOOOOOOOOoooXXXXX        ",
"        XXoOOOOOOOOOOOOOOOOOOOOOOOOOOooXXX        ",
"        XXoOOOOOOOOOOOOOOOOOOOOOOOOOOooXXX        ",
"     XXXooOOOOOOOOOOOOOOOO+++OOOOOOOOOOoooXXX     ",
"     XXXOOOOOOOOOOOOOOOOOO+@@OOOOOOOOOOoooXXX     ",
"     XXXOOOOOOOOOOOOOOOOOO+@@OOOOOOOOOOOooXXX     ",
"  XXXoOOOOOOOOOO@@+OOOOOOOOOOOOOOOOOOOOOOOoooXXX  ",
"  XXXoOOOOOOOOOO@@+OOOOOOOOOOOOOOOOOOOOOOOoooXXX  ",
"XXXooOOOOOOOOOOO++OOOOOOOOOOOOOOOOOOOOOOOOOooXXXXX",
"XXXOOOOOOOOOOOOOOOOOOOOOOOOOOOOOOOOOOOOOOOOOOooXXX",
"XXXOOOOOOOOOOOOOOOOOOOOOOO+@@OOOOOOOOOOOOOOOOooXXX",
"XXXOOOOOOOOOOOOOOOOOOOOOOO+@@OOOOOOOO@@+OOOOOooXXX",
"XXXOOOOOOOO++OOOOOOOOOOOOOO++OOOOOOOO@@+OOOOOooXXX",
"XXXOOOOOOO+@@OOOOOOOOOOOOOOOOOOOOOOOO@@OOOOOOooXXX",
"XXXOOOOOOO+@@OOOOOOOOOOOOOOOOOOOOOOOOOOOOOOOOooXXX",
"XXXOOOOOOOOOOOOOOOOOOOOOOOOOOOOOOOOOOOOOOOOOOooXXX",
"XXXooOOOOOOOOOOOOOOOOOOOOOOOOOOOOOOOOOOOoooooXXXXX",
"  XXXoOOOOOOOOOOOOOOOOOOOOOOOOOOOOOOOOOooooooXXX  ",
"  XXXoOOOOOOOOOOOO+@@OOOOOOOOO+@@OOOOOOooooooXXX  ",
"     XXXOOOOOOOOOO+@@OOOOOOOOo+@@oooooooooXXX     ",
"     XXXOOOOOOOOOOOOOOOOOOOOOoOOOoooooooooXXX     ",
"     XXXooooooooooooooooooooooooooooooooooXXX     ",
"        XXXXXXXXXXXXXXXXXXXXXXXXXXXXXXXXXX        ",
"        XXXXXXXXXXXXXXXXXXXXXXXXXXXXXXXXXX        ",
"        XXXXXXXXX...++++++++++...XXXXXXXXX        ",
"                 ...++++++++++...                 ",
"                 ...++++++++++...                 ",
"                 ...++++++++++...                 ",
"                 ...++++++++++...                 ",
"                 ...++++++++++...                 ",
"                 ...++++++++++...                 ",
"                 ...++++++++++...                 ",
"                 ...++++++++++...                 ",
"                 ...++++++++++...                 ",
"                 ...++++++++++...                 ",
"                 ...++++++++++...                 ",
"                 ...++++++++++...                 ",
"                 ...++++++++++...                 ",
"                 ...++++++++++...                 ",
"              ...++++++++++++++++...              ",
"              ...++++++++++++++++...              ",
"            ...++++++++++++++++++++...            ",
"            ..++++++++++++++++++++++..            ",
"            ..++++++++++++++++++++++..            ",
"            ..........................            ",
"            ..........................            "
};
