/* XPM */
static char *_f730064eb78495e8c761253398494c0pt12LQlhEpe8Iji4_0[] = {
/* columns rows colors chars-per-pixel */
"50 50 7 1 ",
"  c None",
". c gray30",
"X c #CF0000",
"o c #F00000",
"O c #FF3030",
"+ c gray86",
"@ c #F8F8F8",
/* pixels */
"                                                  ",
"                                                  ",
"                                                  ",
"                                                  ",
"                                                  ",
"                                                  ",
"                                                  ",
"                                                  ",
"             XXXXXXXXXXXXXXXXXXXXXXXX             ",
"             XXXXXXXXXXXXXXXXXXXXXXXX             ",
"             XXXXXXXXXXXXXXXXXXXXXXXX             ",
"          XXXooooooooooooo+++ooooooooXXX          ",
"          XXXoOOOOOOOOOOOO+@@OOOOOoooXXX          ",
"          XXXOOOOOOOOOOOOO+@@OOOOOoooXXX          ",
"        XXoOOOOO@@+OOOOOOOOOOOOOOOOOOooXXX        ",
"        XXoOOOOO@@+OOOOOOOOOOOOOOOOOOooXXX        ",
"     XXXoooOOOOO++OOOOOOOOOOOOOOOOOOOOOoooXXX     ",
"     XXXOOOOOOOOOOOOOOOOOOOOOOOOOOOOOOOoooXXX     ",
"     XXXOOOOOOOOOOOOOOOOOO+@@OOOOOOOOOOoooXXX     ",
"  XXXoOOOOOOOOOOOOOOOOOOOO+@@OOOOOOOO@@+OOoooXXX  ",
"  XXXoOOOOO++OOOOOOOOOOOOOO++OOOOOOOO@@+OOoooXXX  ",
"  XXXoOOOO+@@OOOOOOOOOOOOOOOOOOOOOOOO++OOOoooXXX  ",
"  XXXoOOOO+@@OOOOOOOOOOOOOOOOOOOOOOOOOOOOOoooXXX  ",
"  XXXoOOOOOOOOOOOOOOOOOOOOOOOOOOOOOOOOOOOOoooXXX  ",
"  XXXoOOOOOOOOOOOOOOOOOOOOOOOOOOOOOOOOOOoooooXXX  ",
"  XXXoOOOOOOOOOOOOOOOOOOOOOOOOOOOOOOOOOooooooXXX  ",
"  XXXoOOOOOOOOOOOO+@@OOOOOOOOO+@@OOOOOOooooooXXX  ",
"     XXXOOOOOOOOOO+@@OOOOOOOOo+@@oooooooooXXX     ",
"     XXXOOOOOOOOOOOOOOOOOOOOOoOOOoooooooooXXX     ",
"     XXXooooooooooooooooooooooooooooooooooXXX     ",
"        XXXXXXXXXXXXXXXXXXXXXXXXXXXXXXXXXX        ",
"        XXXXXXXXXXXXXXXXXXXXXXXXXXXXXXXXXX        ",
"                 ...++++++++++...                 ",
"                 ...++++++++++...                 ",
"                 ...++++++++++...                 ",
"                 ...++++++++++...                 ",
"                 ...++++++++++...                 ",
"                 ...++++++++++...                 ",
"                 ...++++++++++...                 ",
"                 ...++++++++++...                 ",
"                 ...++++++++++...                 ",
"                 ...++++++++++...                 ",
"                 ...++++++++++...                 ",
"              ...++++++++++++++++...              ",
"              ...++++++++++++++++...              ",
"            ...++++++++++++++++++++...            ",
"            ..++++++++++++++++++++++..            ",
"            ..++++++++++++++++++++++..            ",
"            ..........................            ",
"            ..........................            "
};
