/* XPM */
static char *_8531_e1e93a845796f5e08d1c3ed8d5d532bef4469a00b68170534841fdb160503c62_3[] = {
/* columns rows colors chars-per-pixel */
"50 50 16 1 ",
"  c #C30304",
". c #9F0405",
"X c #860406",
"o c #680507",
"O c #630508",
"+ c #3F0609",
"@ c #03070B",
"# c #002C46",
"$ c #B7F5E6",
"% c #116B46",
"& c #FF0202",
"* c #DB0303",
"= c #2E1B5B",
"- c black",
"; c black",
": c black",
/* pixels */
"==================================================",
"==================================================",
"==========================  ======================",
"==========================   =====================",
"====================OO====...=====================",
"====================OOO===+++=====================",
"====================OOO===+++=====================",
"====================+++===@@@=====================",
"====================+++===@@@=====================",
"====================@@@===@@@=====================",
"==================%%######@@####==================",
"==================%%%%###########=================",
"================%%%%%%############================",
"================%%%%###############===============",
"================%%%%##############@@==============",
"================%%####@@@@@@@@@@@@@@@=============",
"================%%####@@@@@@@@@@@@@@@=============",
"================######@@@@@@@@@@@@@@@=============",
"================######@@X............=============",
"================######@@*&&&&&&&&&&&&=============",
"================######@@ ************=============",
"================####%%@@@@@@@@@@@@@@@=============",
"================####%%#@@@@@@@@@@@@@==============",
"==================##%%%%%%#######=================",
"==================##%%%%%%######==================",
"======================@@@@@=======================",
"===========#%%##=====%#@@@##=====#%%%%============",
"==========##%%##====%%%%#####===##%%%%%===========",
"==========##%%##@@@@%%X...O##@@@###%%%%===========",
"==========%%####@@@@%%*&&&X#@@@@####%%%===========",
"==========%%####@@@@%% ***o#@@@@####%%%===========",
"============@@======%%#######=====@@@=============",
"============@@%=====%%######======@@#=============",
"==========####%%================%%#####===========",
"========######%%##=====$$$=====%%%######==========",
"========##==@@==###===$$$$$===%%%=@@@=###=========",
"========###=@@#=###===$$$$====%%#=@@@=###=========",
"========####==#####===========#####=#####=========",
"========####==####============#####=#####=========",
"====================$$$$$$$$$=====================",
"====================$$$$$$$$======================",
"==================================================",
"==================================================",
"==================$$$$$$$$$$$$$===================",
"==================$$$$$$$$$$$$====================",
"==================================================",
"==================================================",
"==================================================",
"==================================================",
"=================================================="
};
