/* XPM */
static char *a1e2642fad7145eda7bf06970bc9cd63PO8J9yKWYD1jnGPD_1[] = {
/* columns rows colors chars-per-pixel */
"50 50 2 1 ",
"  c #2E1B5B",
". c #DFDF20",
/* pixels */
"                    ..........                    ",
"                ..................                ",
"              ......................              ",
"            ..........................            ",
"          ..............................          ",
"         ................................         ",
"        ..................................        ",
"       ....................................       ",
"      ......................................      ",
"     ........................................     ",
"     .........................................    ",
"      ........................................    ",
"       ........................................   ",
"         ......................................   ",
"           .....................................  ",
"            ....................................  ",
"             .................................... ",
"               .................................. ",
"                ................................. ",
"                  ............................... ",
"                   ...............................",
"                     .............................",
"                       ...........................",
"                        ..........................",
"                         .........................",
"                         .........................",
"                        ..........................",
"                       ...........................",
"                     .............................",
"                   ...............................",
"                  ............................... ",
"                ................................. ",
"               .................................. ",
"             .................................... ",
"            ....................................  ",
"           .....................................  ",
"         ......................................   ",
"       ........................................   ",
"      ........................................    ",
"     .........................................    ",
"     ........................................     ",
"      ......................................      ",
"       ....................................       ",
"        ..................................        ",
"         ................................         ",
"          ..............................          ",
"            ..........................            ",
"              ......................              ",
"                ..................                ",
"                    ..........                    "
};
