/* XPM */
static char *_a0b2a5d6fb24edeabfe45346191d264vb8ulCJTPL8Wh4bS[] = {
/* columns rows colors chars-per-pixel */
"50 50 192 2 ",
"   c None",
".  c #010101",
"X  c #090500",
"o  c #0D0A02",
"O  c #060708",
"+  c #0B0B0B",
"@  c #130D00",
"#  c #1B0F00",
"$  c #1A1400",
"%  c #14120C",
"&  c #19160F",
"*  c #151514",
"=  c #1C1C1C",
"-  c #251600",
";  c #281600",
":  c #221900",
">  c #2C1C00",
",  c #2A1C08",
"<  c #341D00",
"1  c #381F00",
"2  c #221F11",
"3  c #201F1D",
"4  c #2F2A0F",
"5  c #282106",
"6  c #352000",
"7  c #3F2601",
"8  c #372900",
"9  c #3A2B00",
"0  c #3D3100",
"q  c #262113",
"w  c #322915",
"e  c #373118",
"r  c #39331A",
"t  c #242423",
"y  c #2D2D2D",
"u  c #353534",
"i  c #383736",
"p  c #3A3A3A",
"a  c #432500",
"s  c #492700",
"d  c #432D04",
"f  c #4F2C00",
"g  c #542E00",
"h  c #473700",
"j  c #4D3B00",
"k  c #483806",
"l  c #553103",
"z  c #5C3200",
"x  c #543B00",
"c  c #593A00",
"v  c #423015",
"b  c #523E1B",
"n  c #603400",
"m  c #703D00",
"M  c #554500",
"N  c #5F4F00",
"B  c #4E4411",
"V  c #514716",
"C  c #52441D",
"Z  c #5B4F1E",
"A  c #6F4300",
"S  c #644C01",
"D  c #6B4E00",
"F  c #724000",
"G  c #645000",
"H  c #695201",
"J  c #625309",
"K  c #685A11",
"L  c #6A5716",
"P  c #76561D",
"I  c #77591D",
"U  c #7A680F",
"Y  c #7A650C",
"T  c #6E601D",
"R  c #78681A",
"E  c #5C5020",
"W  c #6F6021",
"Q  c #706021",
"!  c #8D5900",
"~  c #935100",
"^  c #985400",
"/  c #935D00",
"(  c #9D5C00",
")  c #A55B00",
"_  c #876600",
"`  c #8F6602",
"'  c #8D6F00",
"]  c #826F0D",
"[  c #826C02",
"{  c #9F6309",
"}  c #9E7500",
"|  c #997D00",
" . c #9B6D1B",
".. c #987919",
"X. c #B56900",
"o. c #BC6C00",
"O. c #B66500",
"+. c #A27700",
"@. c #A37C00",
"#. c #B97B00",
"$. c #BA7D17",
"%. c #816320",
"&. c #C56B00",
"*. c #CD7200",
"=. c #CF7E00",
"-. c #C37605",
";. c #D57500",
":. c #D37B01",
">. c #DC7A00",
",. c #E47E00",
"<. c #AD8600",
"1. c #AB8A00",
"2. c #B18900",
"3. c #BC8B00",
"4. c #B79006",
"5. c #BE9400",
"6. c #BD9C01",
"7. c #BD8817",
"8. c #BC8417",
"9. c #BB981D",
"0. c #B5981B",
"q. c #CB8200",
"w. c #D98700",
"e. c #D78B06",
"r. c #C59000",
"t. c #CF9500",
"y. c #C19F00",
"u. c #DB9F00",
"i. c #D79D07",
"p. c #D38B10",
"a. c #C59C16",
"s. c #D59410",
"d. c #E68400",
"f. c #E88300",
"g. c #E48900",
"h. c #E98B00",
"j. c #EB9300",
"k. c #E19900",
"l. c #ED9B00",
"z. c #E59C0A",
"x. c #E29209",
"c. c #F09E00",
"v. c #C7A100",
"b. c #CCA200",
"n. c #C9A90F",
"m. c #D1A200",
"M. c #DEA600",
"N. c #D5A900",
"B. c #D9AD00",
"V. c #DCB100",
"C. c #CCAC13",
"Z. c #DCB514",
"A. c #D4B213",
"S. c #E4A600",
"D. c #EFA100",
"F. c #ECAA01",
"G. c #E6A904",
"H. c #F1A500",
"J. c #F2AC00",
"K. c #EBB600",
"L. c #E7B90A",
"P. c #E6BB04",
"I. c #F5B400",
"U. c #F9B700",
"Y. c #F7B900",
"T. c #F8BD00",
"R. c #F2BF0A",
"E. c #E0B410",
"W. c #EEC000",
"Q. c #EBC20C",
"!. c #F4C400",
"~. c #FAC400",
"^. c #F6CD04",
"/. c #FDC900",
"(. c #FCCA00",
"). c #FCCB00",
"_. c #FDCB00",
"`. c #FECA00",
"'. c #FDCD00",
"]. c #FCCC00",
"[. c #FDCF00",
"{. c #FFCE00",
"}. c #FFCD00",
"|. c #FBC800",
" X c #F1C30C",
".X c #FDD100",
"XX c #FFD000",
"oX c #FED200",
"OX c #FFD300",
"+X c #FDD202",
"@X c #FFD500",
"#X c #FFD601",
/* pixels */
"                                              . . . . .                                             ",
"                                    . . . . . . . . . . . . . .                                     ",
"                              . . . . o 5 k J Y ] ] U K B 4 % . . . .                               ",
"                          X . . o 0 [ 6.P.^.OX@X@X@X@X@X^.Q.n...V & . . .                           ",
"                        . . @ N 6.!.@X@X@XOXOXOXOXOXOXOXOXOX@X@X^.C.R 2 . . .                       ",
"                    O . X M y.].@XOXOXOXOXOXOXOXOXOXOXOXOXOXOXOXOXOXOXA.T % . .                     ",
"                  O . : | !.OX{.{.{.{.{.{.{.{.{.{.{.{.{.{.{.{.{.{.{.{.OX^.0.e . .                   ",
"                O . 0 v.{.{.{.{.{.{.{.{.{.{.{.{.{.{.{.OXOX{.{.{.{.{.{.{.{.OXZ.Z . .                 ",
"              O . j V.{.{.(.(.(.(.(.(.(.(.(.(.(.{.!.v.1.6.W.{.(.(.(.(.(.(.(.{.Q.W O .               ",
"            + . j P.{.(.(.(.(.(.(.(.(.(.(.(.(.(.P.H @ X @ M B.(.(.(.(.(.(.(.(.(. XQ O .             ",
"          * . 9 B.(.|.|.|.|.|.|.|.|.|.|.|.|.|.|.Y . . . . . H !.(.|.|.|.|.|.|.|.(.R.E . .           ",
"          O $ y.(.~.~.~.~.~.~.~.~.~.~.~.~.~.|.L.w . . . . . : N.(.~.~.~.~.~.~.~.~.(.Z.r . .         ",
"        + . ' ~.~.~.~.~.~.~.~.~.~.~.~.~.~.~.|.E.q . . . . . $ b.|.~.~.~.~.~.~.~.~.~.|.9.% .         ",
"      3 . h K.~.~.~.~.~.~.~.~.~.~.~.~.~.~.~.~.R.C . . . . . 0 K.~.~.~.~.~.~.~.~.~.|.~.4.q . .       ",
"      + o 2.~.~.~.~.~.~.~.~.~.~.~.~.~.~.~.~.~.~.9.q . . . $ <.~.~.~.~.~.~.~.~.~.~.m.H @ . .         ",
"    t . j K.T.T.T.T.T.T.T.T.T.T.T.T.T.T.T.T.T.T.T.a.L k S 5.T.T.T.T.T.T.T.T.~.S._ : . .             ",
"    * X @.T.T.T.Y.T.T.Y.Y.Y.T.T.T.T.T.T.Y.Y.Y.Y.Y.T.T.I.Y.T.Y.Y.T.T.T.T.T.K.@.8 . .                 ",
"    O 6 M.Y.Y.Y.Y.Y.Y.Y.Y.Y.Y.Y.Y.Y.Y.Y.Y.Y.Y.Y.Y.Y.Y.Y.Y.Y.Y.Y.Y.Y.Y.Y.3.j X .                     ",
"  t . S Y.Y.Y.Y.Y.Y.Y.Y.Y.Y.Y.Y.Y.Y.Y.Y.Y.Y.Y.Y.Y.Y.Y.Y.Y.Y.Y.Y.Y.Y.t.D @ . .                       ",
"  = . } U.Y.Y.Y.Y.Y.Y.Y.Y.Y.Y.Y.Y.Y.Y.Y.Y.Y.Y.Y.Y.Y.Y.Y.Y.Y.Y.U.S._ : . .                           ",
"  * @ r.Y.I.I.I.I.I.I.I.I.I.I.I.I.I.I.I.I.I.I.I.I.I.I.I.I.Y.F.+.8 . .                               ",
"  + > u.I.I.I.I.I.I.I.I.I.I.I.I.I.I.I.I.I.I.I.I.I.I.I.I.J.3.x X .                                   ",
"  O d S.J.J.J.J.J.J.J.J.J.J.J.J.J.J.J.J.J.J.J.J.J.J.J.t.D @ . .                                     ",
"i . j F.J.J.J.J.J.J.J.J.J.J.J.J.J.J.J.J.J.J.J.J.J.F.` : . .                                         ",
"u . x D.J.J.J.J.J.J.J.J.J.J.J.J.J.J.J.J.J.J.J.J.J.i.q . .                                           ",
"u . x D.H.H.H.H.H.H.H.H.H.H.H.H.H.H.H.H.H.H.H.H.H.G.%.& . .                                         ",
"p O h l.H.H.H.H.H.H.H.H.H.H.H.H.H.H.H.H.H.H.H.H.H.H.D.7.C O .                                       ",
"  O 7 k.H.D.D.D.D.D.D.D.D.D.D.D.D.D.D.D.D.D.D.D.D.D.H.H.z. .w . .                                   ",
"  + : e.H.D.D.D.D.D.D.D.D.D.D.D.D.D.D.D.D.D.D.D.D.D.D.D.D.H.s.I & . .                               ",
"  * @ #.c.l.l.l.l.l.l.l.l.l.l.l.l.l.l.l.l.l.l.l.l.l.l.l.l.l.c.l.8.b O .                             ",
"  t . / c.l.l.l.l.l.l.l.l.l.l.l.l.l.l.l.l.l.l.l.l.l.l.l.l.l.l.l.c.z. .w . .                         ",
"  u . c j.l.l.l.l.l.l.l.l.l.l.l.l.l.l.l.l.l.l.l.l.l.l.l.l.l.l.l.l.l.l.p.P & . .                     ",
"    + - q.l.j.j.j.j.j.j.j.j.j.j.j.j.j.j.j.j.j.j.j.j.j.j.j.j.j.j.j.j.j.l.l.$.b O .                   ",
"    = . ! j.j.j.j.j.j.j.j.j.j.j.j.j.j.j.j.j.j.j.j.j.j.j.j.j.j.j.j.j.j.j.j.j.x. .w . .               ",
"    p . 7 w.j.j.j.j.j.j.j.j.j.j.j.j.j.j.j.j.j.j.j.j.j.j.j.j.j.j.j.j.j.j.j.j.j.j.p.P & . .           ",
"      * X / j.j.j.j.j.j.j.j.j.j.j.j.j.j.j.j.j.j.j.j.j.j.j.j.j.j.j.j.j.j.j.j.j.j.j.j.$.b + .         ",
"      p . 6 =.h.h.h.h.h.h.h.h.h.h.h.h.h.h.h.h.h.h.h.h.h.h.h.h.h.h.h.h.h.h.h.h.h.h.h.j.e.v . .       ",
"        = . A g.h.h.h.h.h.h.h.h.h.h.h.h.h.h.h.h.h.h.h.h.h.h.h.h.h.h.h.h.h.h.h.h.h.h.h.{ o .         ",
"          + @ ( h.h.h.h.h.h.h.h.h.h.h.h.h.h.h.h.h.h.h.h.h.h.h.h.h.h.h.h.h.h.h.h.h.h.-., . .         ",
"          u . - X.h.h.h.h.h.h.h.h.h.h.h.h.h.d.d.h.h.h.h.d.h.h.h.h.h.h.h.d.h.h.h.h.:.d . .           ",
"            t . < o.h.g.g.g.g.g.g.g.g.g.g.g.d.d.g.g.d.d.g.g.g.g.d.d.d.d.g.g.g.h.:.l . .             ",
"              = . < X.d.d.g.g.g.g.g.g.g.g.g.d.d.g.d.d.d.g.g.g.g.d.d.d.g.g.g.d.:.l . .               ",
"                = . - ( d.f.d.d.d.d.d.d.d.d.d.d.d.d.d.d.d.d.d.d.d.d.d.d.g.d.o.7 . .                 ",
"                  t . @ m ;.f.d.d.d.d.d.d.d.d.d.d.d.d.d.d.d.d.d.d.d.d.f.>.~ - . .                   ",
"                    y O . 1 ^ ;.f.d.d.d.d.d.d.d.,.d.d.d.d.d.d.d.d.f.,.O.f X . .                     ",
"                        * . X a ~ *.,.f.f.,.,.,.,.,.,.,.,.,.f.,.;.) l @ . .                         ",
"                          y * . . ; n ~ O.;.>.,.,.,.,.,.;.&.) m < X . . .                           ",
"                              y * O . . @ > a g z z g s < # X . . . .                               ",
"                                    t * + O . . . . . . . O O O                                     ",
"                                              = = = *                                               "
};
